<svg width="35" height="35" viewBox="0 0 35 35" fill="none" xmlns="http://www.w3.org/2000/svg">
<g clip-path="url(#clip0_165_62)">
<path d="M34.0047 14.3456C34.2087 15.5202 34.3105 16.7103 34.3088 17.9025C34.3088 23.2269 32.4056 27.7287 29.0938 30.7759H29.0981C26.2019 33.4512 22.2206 35 17.5 35C12.8587 35 8.40752 33.1563 5.12563 29.8744C1.84374 26.5925 0 22.1413 0 17.5C0 12.8587 1.84374 8.40751 5.12563 5.12563C8.40752 1.84374 12.8587 -4.91599e-06 17.5 -4.91599e-06C21.8442 -0.0508826 26.0397 1.58119 29.2075 4.55437L24.2113 9.55062C22.4052 7.829 19.9948 6.88623 17.5 6.92562C12.9347 6.92562 9.05625 10.0056 7.67375 14.1531C6.94073 16.3264 6.94073 18.6801 7.67375 20.8534H7.68031C9.06938 24.9944 12.9413 28.0744 17.5066 28.0744C19.8647 28.0744 21.8903 27.4706 23.4609 26.4031H23.4544C24.3664 25.7989 25.1465 25.0162 25.7477 24.1023C26.3488 23.1883 26.7586 22.162 26.9522 21.0853H17.5V14.3478H34.0047V14.3456Z" fill="black"/>
</g>
<defs>
<clipPath id="clip0_165_62">
<rect width="35" height="35" fill="white"/>
</clipPath>
</defs>
</svg>
