<svg width="186" height="57" viewBox="0 0 186 57" fill="none" xmlns="http://www.w3.org/2000/svg">
<mask id="mask0_141_79" style="mask-type:alpha" maskUnits="userSpaceOnUse" x="0" y="0" width="186" height="57">
<rect width="186" height="57" rx="9" fill="#D9D9D9"/>
</mask>
<g mask="url(#mask0_141_79)">
<path d="M184.328 -1.59161C183.56 -1.93717 166.855 -2 93.4409 -2C12.7537 -1.96859 3.35155 -1.93717 2.43498 -1.49737C1.87322 -1.21464 0.956656 -0.617763 0.424458 -0.177961C-0.137307 0.293257 -0.906037 1.36135 -1.2904 2.24095L-2 3.81168V52.5041C-0.906037 54.923 -0.0486069 56.0539 0.572291 56.5566C1.19319 57.0906 2.13932 57.6875 2.64195 57.9074C3.44025 58.253 20.1749 58.3158 93.5 58.3158C166.825 58.3158 183.56 58.253 184.358 57.9074C184.861 57.6875 185.807 57.0906 186.428 56.5566C187.049 56.0539 187.906 54.9544 188.29 54.0748L189 52.5041V3.81168C187.906 1.39276 187.049 0.261842 186.428 -0.24079C185.807 -0.774836 184.861 -1.37171 184.328 -1.59161Z" fill="#A6A6A5"/>
<path d="M184.417 -0.0837238C183.619 -0.554941 175.872 -0.586355 93.9435 -0.649184C15.8287 -0.712013 4.209 -0.649184 3.17417 -0.272211C2.52371 0.0105196 1.72541 0.450322 1.40018 0.764467C1.07495 1.0472 0.601883 1.58124 0.365351 1.9268C0.128818 2.24095 -0.225981 2.96348 -0.432947 3.49753C-0.669479 4.18864 -0.758179 10.7543 -0.758179 28.1579C-0.758179 45.5301 -0.669479 52.1585 -0.432947 52.8811C-0.225981 53.4465 0.306218 54.3576 0.808849 54.8916C1.31148 55.4257 2.08021 56.1168 2.58284 56.3995C3.38114 56.8707 11.0684 56.9021 93.5 56.9021C175.932 56.9021 183.619 56.8707 184.417 56.3995C184.89 56.1168 185.718 55.4257 186.191 54.8916C186.664 54.3576 187.226 53.4465 187.433 52.8811C187.67 52.1585 187.758 45.5301 187.758 28.1579C187.758 10.7857 187.67 4.15723 187.433 3.4347C187.226 2.86924 186.664 1.95822 186.191 1.42417C185.718 0.890125 184.89 0.199006 184.417 -0.0837238Z" fill="#040707"/>
<path d="M31.3215 32.3358L27.4187 28.1577L19.7314 36.3255L12.0441 44.4618C12.9607 45.7812 13.6112 46.4409 14.0547 46.8179C14.6164 47.2577 15.326 47.4776 16.1243 47.4462C17.1591 47.4462 18.667 46.6294 25.7926 42.2942C30.4345 39.4669 34.4556 37.0166 34.7217 36.8281C35.1652 36.514 34.6921 35.9171 31.3215 32.3358Z" fill="#EB4335"/>
<path d="M27.4187 28.1579L12.192 11.9795V28.1579V44.3364L27.4187 28.1579Z" fill="#547DBF"/>
<path d="M106.214 6.10483C106.214 5.94776 105.948 5.85352 105.622 5.85352C105.268 5.85352 104.913 6.13625 104.765 6.57605C104.558 7.11009 104.617 7.29858 105.001 7.36141C105.268 7.42424 105.652 7.23575 105.859 6.89019C106.066 6.57605 106.214 6.23049 106.214 6.10483Z" fill="white"/>
<path d="M74.2226 9.08921C73.8383 8.71223 73.1582 8.30384 72.6556 8.2096C72.153 8.11536 71.3842 8.24102 70.8816 8.46092C70.379 8.68082 69.9059 9.12062 69.7876 9.40335C69.6398 9.68608 69.5511 10.3458 69.5511 10.8798C69.5511 11.4139 69.7876 12.0422 70.0833 12.3249C70.3494 12.6076 71.266 13.1731 72.0643 13.5501C72.8921 13.8956 73.6313 14.4611 73.7791 14.7438C73.8974 15.0265 73.8678 15.5606 73.6904 15.9061C73.513 16.2517 73.1287 16.5973 72.8034 16.6915C72.4782 16.7858 71.8869 16.6601 71.4729 16.4716C71.059 16.2517 70.6451 15.8119 70.5859 15.5292C70.4972 15.215 70.3494 14.9637 70.2311 14.9637C70.0833 14.9637 69.7876 15.0894 69.5511 15.2464C69.1667 15.4978 69.1667 15.6862 69.492 16.346C69.6694 16.7858 70.3494 17.3826 70.9703 17.6654C71.8573 18.0737 72.2712 18.1052 73.1582 17.8224C73.7791 17.6339 74.4887 17.1627 74.7253 16.7858C74.9618 16.3774 75.1688 15.7177 75.1983 15.2779C75.1983 14.8381 74.9618 14.1784 74.6661 13.77C74.3705 13.3616 73.3948 12.6705 72.5078 12.1992C71.3251 11.571 70.852 11.1626 70.7929 10.6285C70.7633 10.1573 70.9703 9.81174 71.4729 9.52901C72.1234 9.21486 72.3304 9.24628 73.04 9.78032C73.4835 10.1573 74.0748 10.4086 74.3409 10.3458C74.6366 10.283 74.8731 10.1573 74.8731 10.0316C74.8731 9.87457 74.5774 9.46618 74.2226 9.08921Z" fill="white"/>
<path d="M90.9573 8.93213C90.4842 8.6494 89.6268 8.33526 89.065 8.2096C88.2963 8.08394 87.6754 8.2096 86.7293 8.74365C85.9901 9.15204 85.1327 9.87457 84.8075 10.3458C84.3344 11.0055 84.1866 11.728 84.1866 13.0788C84.1866 14.4297 84.3344 15.1522 84.8075 15.8119C85.1327 16.2831 85.9901 17.0057 86.7293 17.414C87.6754 17.9481 88.3259 18.0737 89.065 17.9481C89.6268 17.8538 90.5434 17.4769 91.0756 17.1627C91.5782 16.8172 92.2287 16.0632 92.4948 15.5292C92.7609 14.9637 92.9974 13.8642 92.9974 13.0788C92.9974 12.2307 92.7904 11.2254 92.4356 10.5657C92.1104 9.96881 91.4304 9.21486 90.9573 8.93213Z" fill="white"/>
<path d="M148.021 8.93213C147.548 8.6494 146.69 8.33526 146.129 8.2096C145.36 8.08394 144.739 8.2096 143.793 8.74365C143.054 9.15204 142.196 9.87457 141.871 10.3458C141.398 11.0055 141.25 11.728 141.25 13.0788C141.25 14.4297 141.398 15.1522 141.871 15.8119C142.196 16.2831 143.054 17.0057 143.793 17.414C144.739 17.9481 145.389 18.0737 146.129 17.9481C146.69 17.8538 147.607 17.4769 148.109 17.1627C148.642 16.8172 149.292 16.0632 149.558 15.4978C149.824 14.9637 150.061 13.8642 150.061 13.0788C150.061 12.2307 149.854 11.2254 149.499 10.5657C149.174 9.96881 148.494 9.21486 148.021 8.93213Z" fill="white"/>
<path d="M59.2915 8.36667H57.4288V13.0788V17.791C60.4446 17.791 61.4794 17.6025 62.1299 17.2256C62.6917 16.9428 63.4308 16.2831 63.7561 15.8119C64.2291 15.1522 64.377 14.4297 64.377 13.0788C64.377 11.728 64.2291 11.0055 63.7561 10.3458C63.4308 9.87457 62.6917 9.21486 62.1299 8.93213C61.4794 8.55516 60.4446 8.36667 59.2915 8.36667Z" fill="white"/>
<path d="M67.4814 13.0788C67.4814 8.58657 67.4519 8.36667 66.8901 8.36667C66.3284 8.36667 66.2988 8.58657 66.2988 13.0788C66.2988 17.5711 66.3284 17.791 66.8901 17.791C67.4519 17.791 67.4814 17.5711 67.4814 13.0788Z" fill="white"/>
<path d="M79.3081 8.39809L77.2975 8.30384L77.268 13.0474C77.2384 17.6025 77.268 17.791 77.8297 17.791C78.3619 17.791 78.4211 17.5711 78.4211 15.969V14.1784C80.8751 13.927 81.5551 13.6129 82.0873 13.0788C82.6491 12.5134 82.8856 11.9793 82.8856 11.194C82.8856 10.4086 82.6491 9.87457 82.0873 9.30911C81.4664 8.6494 80.9638 8.49233 79.3081 8.39809Z" fill="white"/>
<path d="M98.3785 11.3825C96.9593 8.96355 96.4567 8.33526 95.9245 8.36667C95.274 8.36667 95.274 8.39809 95.274 13.0788C95.274 17.5711 95.3036 17.791 95.8654 17.791C96.4271 17.791 96.4567 17.6025 96.368 14.1784C96.3384 12.1992 96.3975 10.5657 96.5158 10.5657C96.6341 10.5657 96.841 10.817 96.9593 11.1311C97.048 11.4139 97.9646 13.0474 98.9403 14.7438C100.359 17.1941 100.862 17.8224 101.394 17.8224C102.074 17.791 102.074 17.7596 102.074 13.0788C102.074 8.39809 102.074 8.36667 101.394 8.36667C100.744 8.36667 100.744 8.4295 100.803 11.5081C100.862 13.8956 100.803 14.6182 100.507 14.5553C100.3 14.4925 99.3542 13.0788 98.3785 11.3825Z" fill="white"/>
<path d="M105.622 13.0788C105.622 8.58657 105.593 8.36667 105.031 8.36667C104.469 8.36667 104.44 8.58657 104.44 13.0788C104.44 17.5711 104.469 17.791 105.031 17.791C105.593 17.791 105.622 17.5711 105.622 13.0788Z" fill="white"/>
<path d="M109.17 11.6966C108.224 8.68082 108.047 8.36667 107.426 8.36667C106.953 8.36667 106.775 8.52375 106.864 8.77506C106.953 8.99496 107.662 11.0997 108.461 13.4872C109.732 17.3198 109.969 17.8224 110.56 17.791C110.944 17.791 111.24 17.7596 111.24 17.7282C111.24 17.6654 111.89 15.6548 112.718 13.2359C113.546 10.817 114.197 8.74365 114.197 8.61799C114.197 8.49233 113.901 8.39809 113.576 8.46092C113.044 8.52375 112.748 9.12062 111.861 11.7909C111.27 13.5501 110.649 15.0265 110.501 15.0265C110.323 15.0265 109.732 13.5186 109.17 11.6966Z" fill="white"/>
<path d="M118.484 8.36667H115.971V13.0788V17.791C120.79 17.791 120.997 17.7596 120.997 17.1627C120.997 16.5973 120.79 16.5344 119.075 16.5344H117.153V13.7071C120.494 13.7071 120.701 13.6443 120.701 13.0788C120.701 12.5134 120.494 12.4506 118.927 12.4506H117.153V9.62325C120.79 9.62325 120.997 9.56042 120.997 8.99496C120.997 8.4295 120.79 8.36667 118.484 8.36667Z" fill="white"/>
<path d="M124.545 16.5344C124.545 8.58658 124.515 8.36667 123.954 8.36667C123.392 8.36667 123.362 8.58657 123.362 13.0788V17.791C128.034 17.791 128.241 17.7596 128.241 17.1627C128.241 16.5973 128.034 16.5344 126.378 16.5344H124.545Z" fill="white"/>
<path d="M135.928 11.3825C134.509 8.96355 134.006 8.33526 133.474 8.36667C132.824 8.36667 132.824 8.39809 132.824 13.0788C132.824 17.5711 132.853 17.791 133.415 17.791C133.977 17.791 134.006 17.6025 133.918 14.1784C133.888 12.1992 133.947 10.5657 134.065 10.5657C134.184 10.5657 134.391 10.817 134.509 11.1311C134.598 11.4139 135.514 13.0474 136.49 14.7438C137.909 17.1941 138.412 17.8224 138.944 17.8224C139.624 17.791 139.624 17.7596 139.624 13.0788C139.624 8.39809 139.624 8.36667 138.944 8.36667C138.293 8.36667 138.293 8.4295 138.353 11.5081C138.412 13.8956 138.353 14.6182 138.057 14.5553C137.85 14.4925 136.904 13.0788 135.928 11.3825Z" fill="white"/>
<path d="M69.6398 24.7336C68.6641 24.231 67.5701 23.9483 66.151 23.8854C64.9979 23.8226 63.6674 23.8854 63.1943 24.0425C62.6917 24.1682 61.7751 24.5451 61.1246 24.8907C60.4742 25.2048 59.4689 25.9902 58.8776 26.5871C58.3158 27.1839 57.488 28.5034 57.0445 29.5086C56.394 30.9537 56.2462 31.739 56.2462 33.6553C56.2462 35.4459 56.394 36.4198 56.9262 37.6764C57.3106 38.5874 58.0793 39.8126 58.641 40.4094C59.2028 41.0063 60.3855 41.9487 61.2725 42.4514C62.7508 43.2996 63.1352 43.3938 65.5596 43.3938C67.8067 43.3624 68.4276 43.2367 69.6989 42.577C70.4972 42.1058 71.6208 41.1948 72.1825 40.5351C72.7443 39.8754 73.3948 38.8073 73.6313 38.2104C73.8678 37.6135 74.0748 36.1999 74.0748 35.069L74.1339 33.027L65.7075 32.87V35.3831C71.5616 35.3831 71.6208 35.3831 71.4729 36.1057C71.4138 36.4826 71.2068 37.2052 71.0294 37.6764C70.8816 38.1476 70.172 38.9644 69.4624 39.467C68.7824 40.001 67.6293 40.5665 66.8901 40.755C65.8257 41.0377 65.2048 41.0063 63.8448 40.5979C62.5734 40.2209 61.8342 39.7497 60.829 38.6816C60.0898 37.8963 59.3506 36.7339 59.1437 36.1057C58.9663 35.4459 58.8776 34.0637 58.9663 33.027C59.055 31.5191 59.2915 30.828 60.1194 29.5714C60.7994 28.5034 61.5977 27.7494 62.603 27.2154C63.6082 26.7127 64.5544 26.4614 65.5596 26.4614C66.3579 26.4928 67.511 26.7127 68.0728 26.9955C68.6345 27.2782 69.3441 27.6866 69.6102 27.9065C70.0537 28.252 70.2311 28.1892 70.9999 27.3724C71.7982 26.5557 71.8573 26.3672 71.5025 25.9588C71.266 25.7075 70.4381 25.142 69.6398 24.7336Z" fill="white"/>
<path d="M117.449 24.3881H115.084V33.8124V43.2367H117.449V24.3881Z" fill="white"/>
<path d="M139.535 24.3881H135.78V33.8124V43.2367H138.146L138.293 36.1685C143.556 35.8858 144.414 35.7287 145.242 35.1946C145.803 34.8177 146.572 34.0009 146.927 33.3726C147.311 32.7443 147.666 31.582 147.725 30.7652C147.784 29.8856 147.666 28.7861 147.4 28.1578C147.163 27.5609 146.69 26.7127 146.335 26.3043C145.981 25.8959 145.153 25.2991 144.502 24.9849C143.556 24.5137 142.581 24.4195 139.535 24.3881Z" fill="white"/>
<path d="M151.746 24.3881H149.381V33.8124V43.2367H151.746V24.3881Z" fill="white"/>
<path d="M96.368 31.1108C96.0132 31.0165 95.1853 30.9223 94.5349 30.8909C93.914 30.8594 92.9087 31.0165 92.3174 31.205C91.7556 31.4249 90.9573 31.8647 90.5434 32.1788C90.1294 32.5244 89.5085 33.3412 89.1242 34.0009C88.6905 34.8177 88.4737 35.7496 88.4737 36.7968C88.4737 37.6764 88.592 38.8701 88.7398 39.467C88.9172 40.0953 89.5381 41.0691 90.2181 41.7603C90.8982 42.42 91.9626 43.0797 92.6722 43.2682C93.3818 43.4566 94.5349 43.5195 95.274 43.4252C96.0132 43.2996 97.1071 42.8912 97.6985 42.5142C98.3489 42.1058 99.1177 41.2262 99.5612 40.4094C100.093 39.3728 100.271 38.5246 100.271 37.1109C100.271 35.6973 100.123 34.9119 99.5907 33.9695C99.1768 33.2784 98.4672 32.3987 97.9646 32.0218C97.4619 31.6134 96.7523 31.2364 96.368 31.1108Z" fill="white"/>
<path d="M109.614 31.4563C109.2 31.205 108.372 30.9537 107.751 30.8909C107.16 30.828 106.125 30.9851 105.474 31.205C104.824 31.4249 103.907 31.9904 103.464 32.493C102.991 32.9642 102.4 33.8438 102.133 34.4407C101.838 35.1004 101.631 36.2313 101.66 37.268C101.69 38.4303 101.926 39.467 102.4 40.4094C102.932 41.5089 103.464 42.0116 104.735 42.7027C105.622 43.1739 106.716 43.5509 107.16 43.5509C107.603 43.5509 108.52 43.2996 109.17 43.0168C109.821 42.7027 110.412 42.5142 110.501 42.6084C110.59 42.7027 110.59 43.2682 110.501 43.865C110.412 44.4619 110.116 45.2473 109.821 45.6242C109.555 45.9698 108.904 46.4096 108.431 46.5981C107.929 46.7866 107.16 46.8494 106.687 46.7237C106.214 46.6295 105.445 46.0955 104.972 45.53L104.144 44.4933C102.518 45.3415 102.045 45.7185 102.074 45.8441C102.074 45.9698 102.488 46.5667 103.02 47.195C103.553 47.8233 104.469 48.5458 105.031 48.7971C105.593 49.017 106.805 49.2055 107.692 49.2055C108.816 49.2055 109.673 48.9856 110.442 48.483C111.063 48.106 111.861 47.2892 112.216 46.6923C112.807 45.6557 112.866 45.153 112.925 38.4617L113.014 31.2992C111.181 31.2992 110.59 31.4563 110.501 31.6134C110.412 31.8019 110.057 31.739 109.614 31.4563Z" fill="white"/>
<path d="M127.295 31.7076C126.851 31.3935 125.846 31.0793 125.107 30.9537C124.308 30.8594 123.244 30.9537 122.564 31.1736C121.913 31.4249 120.967 32.1474 120.317 32.9328C119.666 33.7182 119.105 34.7548 119.016 35.3831C118.927 35.98 118.927 37.268 119.016 38.2104C119.134 39.2471 119.489 40.3466 119.873 40.9435C120.258 41.5089 121.026 42.2315 121.588 42.577C122.15 42.9226 123.214 43.2996 123.954 43.4252C124.693 43.5195 125.846 43.4566 126.526 43.2682C127.235 43.0797 128.211 42.5456 128.714 42.0744C129.276 41.5404 129.601 41.0063 129.512 40.7236C129.423 40.4723 129.009 40.0325 128.566 39.7811C127.856 39.3413 127.738 39.3728 127.117 40.0325C126.703 40.4723 125.935 40.8178 125.136 40.9435C123.954 41.1006 123.687 41.0377 122.771 40.1895L121.736 39.2157C123.569 38.3989 124.841 37.8334 125.728 37.4565C126.615 37.0795 127.916 36.4826 128.596 36.1371C129.63 35.6659 129.837 35.4145 129.689 34.9119C129.571 34.5663 129.187 33.8438 128.803 33.2784C128.418 32.7129 127.738 31.9904 127.295 31.7076Z" fill="white"/>
<path d="M161.799 31.739C161.385 31.4249 160.232 31.1108 159.256 30.9851C158.103 30.8594 157.009 30.9537 156.299 31.205C155.649 31.4249 154.851 31.9589 154.466 32.3987C154.111 32.8385 153.816 33.3412 153.816 33.4983C153.816 33.6867 154.318 34.0323 154.91 34.2522C155.945 34.692 156.063 34.6606 156.477 34.0637C156.772 33.6553 157.305 33.4354 158.162 33.404C158.99 33.3726 159.64 33.5611 160.232 34.0009C160.675 34.3779 161.089 34.8805 161.148 35.1004C161.207 35.4459 160.764 35.5088 158.931 35.4145C156.891 35.3203 156.477 35.3831 155.472 36.0428C154.821 36.4512 154.111 37.0795 153.905 37.4251C153.698 37.7706 153.52 38.6502 153.52 39.4042C153.52 40.1895 153.757 41.1006 154.111 41.666C154.437 42.2001 155.205 42.8284 155.797 43.0797C156.418 43.3624 157.334 43.5823 157.866 43.5509C158.399 43.5509 159.227 43.331 159.729 43.0797C160.202 42.8284 160.734 42.3571 160.912 42.0744C161.148 41.6032 161.178 41.6346 161.207 42.3885C161.207 43.1739 161.296 43.2367 162.39 43.2367H163.573C163.573 34.7234 163.484 33.8438 163.041 33.1213C162.774 32.6501 162.213 32.0218 161.799 31.739Z" fill="white"/>
<path d="M84.6892 32.0218C83.5361 31.0793 83.27 30.9851 81.289 30.9851C79.4855 30.9851 78.9533 31.1422 77.8889 31.8647C76.9723 32.4616 76.4106 33.2155 75.8488 34.4407C75.1688 35.9486 75.0801 36.3884 75.287 37.8963C75.4053 38.9644 75.7897 40.0953 76.2923 40.8492C76.7358 41.5089 77.6819 42.3885 78.4211 42.7969C79.3081 43.2996 80.2246 43.5509 81.2299 43.5509C82.1465 43.5509 83.1813 43.2682 84.0092 42.8284C84.7779 42.42 85.6353 41.6032 86.1971 40.7236C86.8476 39.6869 87.1136 38.8701 87.1728 37.5821C87.2615 36.2941 87.1136 35.5088 86.611 34.4407C86.2562 33.6867 85.3988 32.5872 84.6892 32.0218Z" fill="white"/>
<path d="M167.091 32.0218C166.855 31.4249 166.589 31.2992 165.495 31.2992C164.755 31.2992 164.164 31.3621 164.164 31.4563C164.164 31.5506 164.342 32.0846 164.578 32.6501C164.815 33.2155 165.288 34.3779 165.642 35.226C165.997 36.1057 166.529 37.3622 166.825 38.0534C167.091 38.7445 167.623 40.0325 167.978 40.8807C168.333 41.8231 168.51 42.7027 168.422 43.0797C168.303 43.4252 167.771 44.7446 167.209 46.0012C166.677 47.2578 166.234 48.4201 166.234 48.5772C166.234 48.7657 166.796 48.8913 167.476 48.8913C168.57 48.8913 168.777 48.7657 169.102 48.0432C169.309 47.5719 169.811 46.3154 170.225 45.2787C170.639 44.242 171.112 43.1111 171.231 42.7655L171.231 42.7652C171.379 42.419 171.97 41.0373 172.561 39.7183C173.152 38.3675 173.625 37.2052 173.625 37.1109C173.625 37.0167 173.892 36.2941 174.246 35.4774C174.601 34.6606 175.133 33.3726 175.429 32.6501L175.991 31.2992C173.241 31.2992 172.975 31.4249 172.768 32.0218C172.62 32.3987 171.97 34.0951 171.349 35.7601C170.728 37.4565 170.107 38.8073 169.989 38.7445C169.841 38.7131 169.22 37.3308 168.57 35.6973C167.919 34.0637 167.239 32.3987 167.091 32.0218Z" fill="white"/>
<path d="M17.4548 9.02671C16.9817 8.83822 16.3904 8.68115 16.1243 8.68115H16.0947C15.8286 8.71257 15.1486 8.90105 14.5868 9.12095C14.0251 9.34086 13.2564 9.96915 12.872 10.5346C12.5172 11.0687 12.192 11.6027 12.192 11.7284C12.192 11.8854 15.6512 15.6552 19.8793 20.1474C24.0777 24.6397 27.5961 28.2524 27.6257 28.1581C27.6848 28.0639 29.3997 26.1476 31.4989 23.9172L35.2539 19.8333C22.0672 11.6969 17.8983 9.2152 17.4548 9.02671Z" fill="#30A953"/>
<path d="M39.2453 22.3463C37.1165 21.0269 35.3425 19.9902 35.2243 19.9902C35.1356 19.9902 33.3616 21.8437 31.2328 24.0741L27.4187 28.1894C33.3616 34.5037 35.1947 36.3258 35.313 36.3258C35.4608 36.3258 37.1757 35.3205 39.1566 34.0953C41.1672 32.8702 43.089 31.5508 43.4733 31.2052C43.8577 30.8282 44.3012 29.9486 44.4786 29.2575C44.7151 28.3465 44.7151 27.7182 44.4786 26.9014C44.3012 26.3045 43.9168 25.5506 43.6212 25.2679C43.3255 24.9537 41.3741 23.6657 39.2453 22.3463Z" fill="#FBBC12"/>
<path d="M100.803 12.1365C100.862 11.3512 100.862 10.2203 100.803 9.62338C100.744 9.0265 100.685 9.65479 100.685 11.037C100.685 12.4193 100.744 12.9219 100.803 12.1365Z" fill="#A6A6A5"/>
<path d="M138.352 12.1365C138.412 11.3512 138.412 10.2203 138.352 9.62338C138.293 9.0265 138.234 9.65479 138.234 11.037C138.234 12.4193 138.293 12.9219 138.352 12.1365Z" fill="#A6A6A5"/>
<path d="M114.995 38.5247C115.054 35.8545 115.054 31.5507 114.995 28.9433C114.965 26.3359 114.906 28.5349 114.906 33.8125C114.906 39.0902 114.965 41.1949 114.995 38.5247Z" fill="#A6A6A5"/>
<path d="M151.953 38.5247C152.012 35.8545 152.012 31.5507 151.953 28.9433C151.924 26.3359 151.864 28.5349 151.864 33.8125C151.864 39.0902 151.924 41.1949 151.953 38.5247Z" fill="#A6A6A5"/>
<path d="M163.78 41.1949C163.839 40.0012 163.839 38.0849 163.78 36.954C163.721 35.8231 163.691 36.8283 163.691 39.153C163.691 41.4777 163.721 42.3887 163.78 41.1949Z" fill="#A6A6A5"/>
<path d="M138.352 41.5091C138.412 40.4724 138.412 38.8388 138.352 37.8964C138.293 36.954 138.264 37.8022 138.264 39.7813C138.264 41.7604 138.293 42.5457 138.352 41.5091Z" fill="#A6A6A5"/>
<path d="M89.7155 9.71779C89.2128 9.49789 88.6806 9.34082 88.5624 9.34082H88.5328C88.4145 9.37223 88.0597 9.43506 87.7345 9.52931C87.4093 9.62355 86.8475 10.0005 86.4631 10.3461C86.1083 10.7231 85.6648 11.5084 85.517 12.0739C85.31 12.7022 85.31 13.4561 85.517 14.1158C85.6648 14.6499 86.1083 15.4352 86.4631 15.7808C86.8475 16.1578 87.498 16.5347 87.9415 16.6604C88.4145 16.7546 89.272 16.6604 89.8633 16.4091C90.4842 16.1578 91.1346 15.6551 91.3416 15.2467C91.5486 14.8384 91.726 13.8645 91.726 13.0791C91.726 12.231 91.519 11.3513 91.2233 10.9115C90.9277 10.4717 90.2476 9.9377 89.7155 9.71779Z" fill="#040707"/>
<path d="M146.808 9.71779C146.306 9.49789 145.774 9.34082 145.626 9.34082C145.508 9.37223 145.153 9.43506 144.828 9.52931C144.502 9.62355 143.941 10.0005 143.556 10.3461C143.201 10.7231 142.758 11.5084 142.61 12.0739C142.403 12.7022 142.403 13.4561 142.61 14.1158C142.758 14.6499 143.201 15.4352 143.556 15.7808C143.941 16.1578 144.591 16.5347 145.035 16.6604C145.508 16.7546 146.365 16.6604 146.956 16.4091C147.577 16.1578 148.228 15.6551 148.435 15.2467C148.642 14.8384 148.819 13.8645 148.819 13.0791C148.819 12.231 148.612 11.3513 148.316 10.9115C148.021 10.4717 147.341 9.9377 146.808 9.71779Z" fill="#040707"/>
<path d="M60.2376 9.71779L58.7297 9.52931L58.6706 13.1106L58.641 16.6918C61.302 16.3148 61.9524 16.0321 62.4846 15.4666C63.076 14.8069 63.2238 14.3043 63.2238 13.0791C63.2238 11.854 63.076 11.3513 62.4846 10.6916C61.9524 10.1262 61.3315 9.84345 60.2376 9.71779Z" fill="#040707"/>
<path d="M79.6333 9.62355H78.4506V11.1943V12.765C80.2542 12.765 80.9933 12.5451 81.2594 12.2938C81.4959 12.0425 81.7029 11.5398 81.7029 11.1943C81.7029 10.8487 81.5255 10.3461 81.2594 10.0948C81.0229 9.81204 80.3133 9.62355 79.6333 9.62355Z" fill="#040707"/>
<path d="M140.393 26.9015H138.471V30.2V33.4986C141.812 33.4986 142.965 33.3101 143.497 33.0273C144 32.776 144.591 32.1163 144.828 31.6137C145.094 31.0796 145.271 30.4513 145.271 30.2C145.271 29.9487 145.094 29.289 144.828 28.7864C144.591 28.2523 143.941 27.624 143.349 27.3727C142.787 27.1214 141.457 26.9015 140.393 26.9015Z" fill="#040707"/>
<path d="M83.1221 33.9698C82.7673 33.7499 82.1168 33.4671 81.7029 33.3729C81.3185 33.2786 80.5794 33.4043 80.0768 33.6242C79.5741 33.8755 78.8645 34.5666 78.5097 35.1321C77.9775 35.9489 77.8593 36.4515 77.9775 37.5824C78.0958 38.7134 78.3323 39.1846 79.1898 40.0013C79.9585 40.7553 80.5203 41.038 81.2594 41.038C82.0281 41.038 82.5899 40.7553 83.3586 40.0013C84.1274 39.2788 84.4526 38.6505 84.5709 37.7395C84.6891 36.9018 84.5906 36.1374 84.2752 35.4462C84.0091 34.8808 83.4769 34.2211 83.1221 33.9698Z" fill="#040707"/>
<path d="M96.161 33.9069C95.7766 33.687 95.1853 33.4671 94.86 33.4043C94.5348 33.3415 93.973 33.3415 93.6182 33.4043C93.2634 33.4671 92.5538 34.0326 92.0808 34.5981C91.3416 35.4777 91.1642 35.9803 91.1642 37.174C91.1642 38.1793 91.3416 38.9333 91.726 39.4673C92.0216 39.9071 92.6425 40.4411 93.1156 40.661C93.6478 40.9124 94.4165 41.0066 95.0966 40.9124C95.8357 40.7867 96.4566 40.4097 96.9297 39.7814C97.4915 39.0903 97.6689 38.462 97.6689 37.4254C97.6689 36.64 97.4915 35.6033 97.2845 35.1321C97.048 34.6609 96.5453 34.0954 96.161 33.9069Z" fill="#040707"/>
<path d="M108.756 33.6556C108.195 33.4043 107.633 33.1844 107.515 33.1844C107.396 33.1844 106.894 33.4043 106.391 33.6242L106.391 33.6242C105.888 33.8755 105.238 34.4096 104.972 34.7865C104.706 35.1949 104.41 36.0431 104.292 36.64C104.174 37.3625 104.292 38.0851 104.587 38.7448C104.854 39.3102 105.445 40.0642 105.888 40.4097C106.332 40.7553 107.13 41.038 107.692 41.038C108.431 41.038 108.934 40.7553 109.673 39.9385C110.53 38.9961 110.678 38.5877 110.678 37.4254C110.678 36.64 110.501 35.5719 110.235 35.0693C109.998 34.5352 109.348 33.9069 108.756 33.6556Z" fill="#040707"/>
<path d="M126.348 33.9698C126.112 33.7185 125.521 33.4357 125.018 33.3415C124.427 33.2158 123.835 33.3415 123.185 33.7813C122.653 34.1583 122.091 34.7237 121.913 35.0693C121.766 35.4148 121.618 35.9803 121.618 36.3259C121.618 36.9227 121.795 36.8599 124.072 35.8232C125.402 35.1949 126.585 34.6295 126.644 34.5666C126.733 34.4724 126.615 34.2211 126.348 33.9698Z" fill="#040707"/>
<path d="M160.587 37.7395C160.232 37.6453 159.374 37.5824 158.724 37.5824C158.073 37.5824 157.245 37.8023 156.861 38.0536C156.447 38.3364 156.152 38.839 156.181 39.2474C156.181 39.6244 156.447 40.1898 156.743 40.4726C157.009 40.7867 157.719 41.0066 158.251 41.038C158.99 41.038 159.493 40.7553 160.232 39.9385C160.793 39.3416 161.237 38.6191 161.237 38.3678C161.237 38.1165 160.941 37.8337 160.587 37.7395Z" fill="#040707"/>
<path d="M138.353 31.6131C138.412 30.6707 138.412 29.257 138.353 28.4717C138.294 27.6863 138.264 28.4717 138.264 30.1994C138.264 31.9272 138.294 32.5555 138.353 31.6131Z" fill="#A6A6A5"/>
</g>
</svg>
