<svg width="60" height="60" viewBox="0 0 60 60" fill="none" xmlns="http://www.w3.org/2000/svg">
<rect width="60" height="60" rx="2" fill="#FE754A"/>
<path d="M24.1667 22.0844C24.1664 22.6369 23.9466 23.1667 23.5557 23.5572C23.1648 23.9477 22.6348 24.1669 22.0823 24.1667C21.5298 24.1664 21 23.9466 20.6095 23.5557C20.219 23.1648 19.9997 22.6348 20 22.0823C20.0003 21.5298 20.22 21 20.6109 20.6095C21.0018 20.219 21.5318 19.9997 22.0844 20C22.6369 20.0003 23.1667 20.22 23.5572 20.6109C23.9477 21.0018 24.1669 21.5318 24.1667 22.0844V22.0844ZM24.2292 25.7094H20.0625V38.751H24.2292V25.7094ZM30.8125 25.7094H26.6667V38.751H30.7708V31.9073C30.7708 28.0948 35.7396 27.7406 35.7396 31.9073V38.751H39.8542V30.4906C39.8542 24.0635 32.5 24.3031 30.7708 27.4594L30.8125 25.7094V25.7094Z" fill="white"/>
</svg>
