<svg width="337" height="80" viewBox="0 0 337 80" fill="none" xmlns="http://www.w3.org/2000/svg">
<path d="M21.12 65.768C18.816 65.768 15.8933 65.3413 12.352 64.488C10.1333 65.0853 8.064 65.384 6.144 65.384C4.224 65.384 3.11467 65.32 2.816 65.192C3.11467 62.632 4.37333 56.3387 6.592 46.312C8.85333 36.2427 9.984 29.928 9.984 27.368C9.984 26.856 9.70667 26.1733 9.152 25.32C8.59733 24.4667 8.04267 23.7413 7.488 23.144L6.656 22.248L6.848 21.288C12.4373 20.136 18.4533 19.56 24.896 19.56C28.4373 19.56 31.3387 20.4133 33.6 22.12C35.904 23.784 37.056 26.1307 37.056 29.16C37.056 35.0053 33.4933 39.0587 26.368 41.32C29.2267 41.6613 31.616 42.7493 33.536 44.584C35.4987 46.376 36.48 48.9147 36.48 52.2C36.48 56.2107 35.0293 59.4747 32.128 61.992C29.2267 64.5093 25.5573 65.768 21.12 65.768ZM19.968 43.048C18.7733 43.048 17.7067 43.1547 16.768 43.368C14.9333 51.4747 13.76 57.128 13.248 60.328C14.3147 61.0533 15.9787 61.416 18.24 61.416C20.544 61.416 22.5067 60.52 24.128 58.728C25.7493 56.8933 26.56 54.2693 26.56 50.856C26.56 45.6507 24.3627 43.048 19.968 43.048ZM23.552 23.528C21.9307 23.528 20.9707 23.6773 20.672 23.976C20.0747 27.816 19.0933 32.8507 17.728 39.08C19.4347 39.08 20.6293 38.9733 21.312 38.76C21.9947 38.5467 22.592 38.2693 23.104 37.928C23.6587 37.5867 24.2773 37.0533 24.96 36.328C26.4533 34.7493 27.2 32.232 27.2 28.776C27.2 25.2773 25.984 23.528 23.552 23.528ZM40.2445 60.2C40.2445 58.3653 40.7992 55.2507 41.9085 50.856C43.0178 46.4187 43.5725 43.7093 43.5725 42.728C43.5725 41.704 42.8045 40.36 41.2685 38.696L41.3325 37.864C44.2338 37.2667 48.0525 36.968 52.7885 36.968C53.0018 37.5227 53.1085 38.5253 53.1085 39.976C53.1085 41.4267 52.5112 44.52 51.3165 49.256C50.1218 53.992 49.5245 56.936 49.5245 58.088C49.5245 59.24 49.9512 59.816 50.8045 59.816C52.0418 59.816 53.4712 59.368 55.0925 58.472C55.2632 57.448 55.6898 55.4853 56.3725 52.584C57.9085 45.7573 58.6765 40.872 58.6765 37.928C60.1698 37.3307 62.8578 37.032 66.7405 37.032H67.9565C67.9565 39.0373 67.3592 42.9627 66.1645 48.808C64.9698 54.6107 64.3725 58.024 64.3725 59.048C64.3725 60.0293 64.5858 60.52 65.0125 60.52C65.2685 60.52 66.4845 60.008 68.6605 58.984L69.8765 61.032C66.0792 64.1893 62.7512 65.768 59.8925 65.768C58.5272 65.768 57.3538 65.384 56.3725 64.616C55.4338 63.848 54.9005 62.8453 54.7725 61.608C51.3165 64.424 48.1805 65.832 45.3645 65.832C43.8712 65.832 42.6338 65.3413 41.6525 64.36C40.7138 63.3787 40.2445 61.992 40.2445 60.2ZM90.358 37.416C90.2727 38.3547 89.8887 39.592 89.206 41.128C87.5847 40.9573 85.9847 40.872 84.406 40.872H84.15C83.254 51.4107 82.422 59.1973 81.654 64.232C80.886 69.2667 79.8833 72.7867 78.646 74.792C77.11 74.7493 75.51 74.536 73.846 74.152C72.2247 73.8107 71.1153 73.448 70.518 73.064C71.542 69.9067 72.566 65.1493 73.59 58.792C74.6567 52.4347 75.3393 46.568 75.638 41.192C74.4433 41.2773 73.1207 41.4267 71.67 41.64C71.542 41.0853 71.478 40.5307 71.478 39.976C71.478 39.3787 71.5633 38.5253 71.734 37.416H75.83C75.9153 33.704 76.1073 30.888 76.406 28.968C76.918 25.5547 78.0913 22.888 79.926 20.968C81.8033 19.0053 84.214 18.024 87.158 18.024C89.0353 18.024 90.5073 18.4507 91.574 19.304C92.6833 20.1147 93.238 21.416 93.238 23.208C93.238 25 92.4273 27.3253 90.806 30.184C89.1847 33 87.0513 35.4107 84.406 37.416H90.358ZM84.534 33.384C86.198 31.976 87.4993 30.4187 88.438 28.712C89.3767 27.0053 89.846 25.4693 89.846 24.104C89.846 22.696 89.398 21.992 88.502 21.992C86.6247 21.992 85.43 24.1467 84.918 28.456C84.7473 29.9067 84.6193 31.5493 84.534 33.384ZM109.108 37.416C109.023 38.3547 108.639 39.592 107.956 41.128C106.335 40.9573 104.735 40.872 103.156 40.872H102.9C102.004 51.4107 101.172 59.1973 100.404 64.232C99.636 69.2667 98.6333 72.7867 97.396 74.792C95.86 74.7493 94.26 74.536 92.596 74.152C90.9747 73.8107 89.8653 73.448 89.268 73.064C90.292 69.9067 91.316 65.1493 92.34 58.792C93.4067 52.4347 94.0893 46.568 94.388 41.192C93.1933 41.2773 91.8707 41.4267 90.42 41.64C90.292 41.0853 90.228 40.5307 90.228 39.976C90.228 39.3787 90.3133 38.5253 90.484 37.416H94.58C94.6653 33.704 94.8573 30.888 95.156 28.968C95.668 25.5547 96.8413 22.888 98.676 20.968C100.553 19.0053 102.964 18.024 105.908 18.024C107.785 18.024 109.257 18.4507 110.324 19.304C111.433 20.1147 111.988 21.416 111.988 23.208C111.988 25 111.177 27.3253 109.556 30.184C107.935 33 105.801 35.4107 103.156 37.416H109.108ZM103.284 33.384C104.948 31.976 106.249 30.4187 107.188 28.712C108.127 27.0053 108.596 25.4693 108.596 24.104C108.596 22.696 108.148 21.992 107.252 21.992C105.375 21.992 104.18 24.1467 103.668 28.456C103.497 29.9067 103.369 31.5493 103.284 33.384ZM108.914 53.928C108.914 48.5947 110.514 44.392 113.714 41.32C116.957 38.2053 120.626 36.648 124.722 36.648C127.239 36.648 129.309 37.2667 130.93 38.504C132.551 39.7413 133.362 41.4053 133.362 43.496C133.362 45.544 132.829 47.272 131.762 48.68C130.738 50.088 129.479 51.176 127.986 51.944C124.957 53.4373 122.183 54.376 119.666 54.76L118.13 54.952C118.429 58.9627 120.071 60.968 123.058 60.968C124.082 60.968 125.17 60.712 126.322 60.2C127.474 59.688 128.37 59.176 129.01 58.664L129.97 57.896L131.506 59.944C131.165 60.4133 130.482 61.032 129.458 61.8C128.434 62.568 127.474 63.208 126.578 63.72C124.103 65.0853 121.394 65.768 118.45 65.768C115.506 65.768 113.181 64.7227 111.474 62.632C109.767 60.5413 108.914 57.64 108.914 53.928ZM118.066 51.816C120.242 51.432 121.97 50.5147 123.25 49.064C124.53 47.6133 125.17 45.736 125.17 43.432C125.17 41.128 124.487 39.976 123.122 39.976C121.501 39.976 120.242 41.3627 119.346 44.136C118.493 46.8667 118.066 49.4267 118.066 51.816ZM154.765 37.416C154.679 38.4827 154.317 39.72 153.677 41.128C152.055 40.9573 150.519 40.872 149.069 40.872H147.917C145.954 50.3867 144.973 56.3173 144.973 58.664C144.973 59.9013 145.229 60.52 145.741 60.52C146.295 60.52 147.725 59.9867 150.029 58.92L151.181 61.032C147.383 64.1893 143.863 65.768 140.621 65.768C139.127 65.768 137.89 65.2987 136.909 64.36C135.97 63.4213 135.501 62.184 135.501 60.648C135.501 59.0693 135.671 57.2987 136.013 55.336C136.397 53.3733 136.909 50.984 137.549 48.168C138.189 45.3093 138.658 43.0053 138.957 41.256C137.378 41.384 136.205 41.512 135.437 41.64C135.351 41.128 135.309 40.4453 135.309 39.592C135.309 38.696 135.373 37.9707 135.501 37.416H139.533C139.874 35.112 140.045 32.936 140.045 30.888L139.981 28.904V28.712C143.309 27.56 146.445 26.984 149.389 26.984C149.559 27.8373 149.645 28.904 149.645 30.184C149.645 31.464 149.282 33.8747 148.557 37.416H154.765ZM168.34 64.168C168.041 65.1067 167.359 65.576 166.292 65.576C165.268 65.576 164.095 65 162.772 63.848C164.052 60.0933 166.761 54.056 170.9 45.736C175.039 37.3733 177.727 31.1227 178.964 26.984C179.135 26.3013 179.22 25.832 179.22 25.576C179.22 24.936 178.751 23.9547 177.812 22.632L177.3 21.928L177.428 21.096C181.055 20.072 185.065 19.56 189.46 19.56L193.364 19.816C193.833 20.456 194.196 21.4373 194.452 22.76C195.135 26.0027 195.476 34.344 195.476 47.784C195.476 52.9893 195.924 56.6587 196.82 58.792C197.161 59.6027 197.503 60.008 197.844 60.008C198.185 60.008 199.231 59.5813 200.98 58.728L201.812 58.344L203.092 60.648C201.471 62.2267 199.657 63.4853 197.652 64.424C195.689 65.32 193.876 65.768 192.212 65.768C187.903 65.768 185.748 62.4187 185.748 55.72V50.664C184.639 50.408 182.953 50.28 180.692 50.28C178.431 50.28 175.956 50.4933 173.268 50.92C171.135 55.8693 169.492 60.2853 168.34 64.168ZM185.876 46.312L185.94 38.888C185.94 32.4027 185.663 28.008 185.108 25.704C184.767 25.704 184.511 25.7467 184.34 25.832C183.145 29.1173 182.015 31.912 180.948 34.216C179.924 36.4773 178.793 38.9093 177.556 41.512C176.361 44.072 175.615 45.672 175.316 46.312H185.876ZM204.575 65.192H204.127C204.042 64.8507 203.999 64.0827 203.999 62.888C203.999 61.6507 204.575 58.3653 205.727 53.032C206.879 47.6987 207.455 44.648 207.455 43.88C207.455 42.5573 206.858 41.1067 205.663 39.528L205.087 38.76L205.151 37.928C207.455 37.288 211.146 36.968 216.223 36.968C216.735 38.0773 216.991 39.6347 216.991 41.64C217.46 40.872 218.442 39.848 219.935 38.568C221.428 37.288 222.964 36.648 224.543 36.648C226.847 36.648 227.999 38.6533 227.999 42.664C227.786 42.92 227.487 43.2613 227.103 43.688C226.762 44.072 226.036 44.6267 224.927 45.352C223.86 46.0773 222.815 46.5253 221.791 46.696C221.748 46.696 221.386 46.12 220.703 44.968C220.02 43.816 219.508 43.24 219.167 43.24C218.1 43.624 217.162 44.264 216.351 45.16C214.388 53.992 213.407 59.7093 213.407 62.312C213.407 63.2507 213.428 63.912 213.471 64.296C211.978 64.8933 209.012 65.192 204.575 65.192ZM234.672 71.912C233.264 72.7653 232.56 73.5973 232.56 74.408C232.56 75.2187 233.008 75.624 233.904 75.624C234.842 75.624 235.888 75.176 237.04 74.28C238.192 73.4267 239.152 72.0187 239.92 70.056C237.872 70.44 236.122 71.0587 234.672 71.912ZM253.68 37.096C253.85 37.2667 253.936 37.6507 253.936 38.248C253.936 38.8027 253.893 39.4213 253.808 40.104C253.722 40.744 253.573 42.216 253.36 44.52C253.146 46.824 252.933 48.8293 252.72 50.536C250.544 69.736 244.698 79.336 235.184 79.336C233.648 79.336 232.24 78.9307 230.96 78.12C229.722 77.3093 229.104 76.264 229.104 74.984C229.104 73.2773 230.149 71.72 232.24 70.312C234.33 68.904 237.146 67.816 240.688 67.048C240.688 67.0053 240.816 66.408 241.072 65.256C241.328 64.104 241.498 63.1653 241.583 62.44C239.024 64.3173 236.613 65.256 234.352 65.256C232.133 65.256 230.298 64.3813 228.848 62.632C227.44 60.8827 226.736 58.088 226.736 54.248C226.736 49.2133 227.866 45.032 230.128 41.704C232.389 38.3333 235.376 36.648 239.088 36.648C241.178 36.648 243.248 37.16 245.296 38.184C247.472 37.416 249.818 37.032 252.336 37.032L253.68 37.096ZM241.968 40.424C240.133 40.424 238.682 41.9173 237.616 44.904C236.549 47.848 236.016 51.1333 236.016 54.76C236.016 58.344 236.826 60.136 238.448 60.136C239.514 60.136 240.773 59.7307 242.224 58.92C243.418 51.752 244.272 45.8427 244.784 41.192C243.589 40.68 242.65 40.424 241.968 40.424ZM265.193 65.768C262.249 65.768 259.945 64.744 258.281 62.696C256.617 60.6053 255.785 57.704 255.785 53.992C255.785 49.256 257.043 45.1813 259.561 41.768C262.121 38.3547 265.641 36.648 270.121 36.648L272.425 36.776C273.15 36.392 273.961 36.2 274.857 36.2C278.227 36.2 279.913 39.3787 279.913 45.736C281.662 45.6507 283.433 45.416 285.225 45.032L286.249 44.776L286.632 47.272C285.225 47.8693 283.326 48.4027 280.937 48.872L279.657 49.128C278.846 53.608 277.203 57.512 274.729 60.84C272.254 64.1253 269.075 65.768 265.193 65.768ZM268.649 60.264C270.441 60.264 272.041 59.112 273.449 56.808C274.899 54.504 275.902 52.072 276.457 49.512C271.891 49.512 269.609 47.8053 269.609 44.392C269.609 43.0267 269.886 41.7467 270.441 40.552L270.76 39.912C270.59 39.8267 270.377 39.784 270.121 39.784C269.865 39.784 269.673 39.8267 269.545 39.912C268.478 40.5947 267.475 42.1947 266.537 44.712C265.598 47.2293 265.129 50.1093 265.129 53.352C265.129 57.96 266.302 60.264 268.649 60.264ZM287.348 65.768C285.897 65.768 284.681 65.2773 283.7 64.296C282.761 63.3147 282.292 61.9493 282.292 60.2C282.292 58.408 283.337 52.7547 285.428 43.24C287.561 33.6827 288.628 26.792 288.628 22.568L288.244 19.752C291.572 18.6 294.687 18.024 297.588 18.024C298.015 18.6213 298.228 19.6667 298.228 21.16C298.228 24.5733 297.14 31.1867 294.964 41C292.831 50.7707 291.764 56.4667 291.764 58.088C291.764 59.6667 291.956 60.456 292.34 60.456L296.82 58.856L297.972 61.096C296.521 62.248 294.751 63.3147 292.66 64.296C290.612 65.2773 288.841 65.768 287.348 65.768ZM308.38 65.768C305.436 65.768 303.132 64.744 301.468 62.696C299.804 60.6053 298.972 57.704 298.972 53.992C298.972 49.256 300.231 45.1813 302.748 41.768C305.308 38.3547 308.828 36.648 313.308 36.648L315.612 36.776C316.337 36.392 317.148 36.2 318.044 36.2C321.415 36.2 323.1 39.3787 323.1 45.736C324.849 45.6507 326.62 45.416 328.412 45.032L329.436 44.776L329.82 47.272C328.412 47.8693 326.513 48.4027 324.124 48.872L322.844 49.128C322.033 53.608 320.391 57.512 317.916 60.84C315.441 64.1253 312.263 65.768 308.38 65.768ZM311.836 60.264C313.628 60.264 315.228 59.112 316.636 56.808C318.087 54.504 319.089 52.072 319.644 49.512C315.079 49.512 312.796 47.8053 312.796 44.392C312.796 43.0267 313.073 41.7467 313.628 40.552L313.948 39.912C313.777 39.8267 313.564 39.784 313.308 39.784C313.052 39.784 312.86 39.8267 312.732 39.912C311.665 40.5947 310.663 42.1947 309.724 44.712C308.785 47.2293 308.316 50.1093 308.316 53.352C308.316 57.96 309.489 60.264 311.836 60.264Z" fill="#FE5722"/>
</svg>
