<svg width="34" height="34" viewBox="0 0 34 34" fill="none" xmlns="http://www.w3.org/2000/svg">
<path d="M6.375 29.75H27.625C28.1886 29.75 28.7291 29.5261 29.1276 29.1276C29.5261 28.7291 29.75 28.1886 29.75 27.625V6.375C29.75 5.81141 29.5261 5.27091 29.1276 4.8724C28.7291 4.47388 28.1886 4.25 27.625 4.25H6.375C5.81141 4.25 5.27091 4.47388 4.8724 4.8724C4.47388 5.27091 4.25 5.81141 4.25 6.375V27.625C4.25 28.1886 4.47388 28.7291 4.8724 29.1276C5.27091 29.5261 5.81141 29.75 6.375 29.75ZM17.0531 22.2594C16.8544 22.0602 16.7428 21.7903 16.7428 21.509C16.7428 21.2276 16.8544 20.9578 17.0531 20.7586L19.7492 18.0625H11.6875C11.4057 18.0625 11.1355 17.9506 10.9362 17.7513C10.7369 17.552 10.625 17.2818 10.625 17C10.625 16.7182 10.7369 16.448 10.9362 16.2487C11.1355 16.0494 11.4057 15.9375 11.6875 15.9375H19.7492L17.0531 13.2414C16.87 13.0393 16.7716 12.7745 16.7783 12.5018C16.785 12.2292 16.8963 11.9695 17.0892 11.7767C17.282 11.5838 17.5417 11.4725 17.8143 11.4658C18.087 11.4591 18.3518 11.5575 18.5539 11.7406L23.0563 16.243C23.1564 16.3425 23.2374 16.4595 23.2953 16.5883C23.3474 16.7193 23.3744 16.859 23.375 17C23.3754 17.1368 23.3483 17.2723 23.2953 17.3984C23.241 17.533 23.1596 17.6551 23.0563 17.757L18.5539 22.2594C18.3547 22.4581 18.0849 22.5697 17.8035 22.5697C17.5222 22.5697 17.2523 22.4581 17.0531 22.2594V22.2594Z" fill="#FE5722"/>
</svg>
