<svg width="34" height="34" viewBox="0 0 34 34" fill="none" xmlns="http://www.w3.org/2000/svg">
<path d="M27.625 4.51562H6.375C5.88186 4.51562 5.40892 4.71152 5.06022 5.06022C4.71152 5.40892 4.51562 5.88186 4.51562 6.375V27.625C4.51562 28.1181 4.71152 28.5911 5.06022 28.9398C5.40892 29.2885 5.88186 29.4844 6.375 29.4844H27.625C28.1181 29.4844 28.5911 29.2885 28.9398 28.9398C29.2885 28.5911 29.4844 28.1181 29.4844 27.625V6.375C29.4844 5.88186 29.2885 5.40892 28.9398 5.06022C28.5911 4.71152 28.1181 4.51562 27.625 4.51562ZM27.8906 27.625C27.8906 27.6954 27.8626 27.763 27.8128 27.8128C27.763 27.8626 27.6954 27.8906 27.625 27.8906H6.375C6.30455 27.8906 6.23699 27.8626 6.18717 27.8128C6.13736 27.763 6.10938 27.6954 6.10938 27.625V6.375C6.10938 6.30455 6.13736 6.23699 6.18717 6.18717C6.23699 6.13736 6.30455 6.10938 6.375 6.10938H27.625C27.6954 6.10938 27.763 6.13736 27.8128 6.18717C27.8626 6.23699 27.8906 6.30455 27.8906 6.375V27.625ZM22.8703 16.4422C22.9459 16.5141 23.006 16.6007 23.0471 16.6966C23.0882 16.7924 23.1094 16.8957 23.1094 17C23.1094 17.1043 23.0882 17.2076 23.0471 17.3034C23.006 17.3993 22.9459 17.4859 22.8703 17.5578L18.368 22.0734C18.2949 22.1466 18.2079 22.2043 18.112 22.2431C18.0162 22.2818 17.9135 22.3009 17.8102 22.2992C17.7047 22.302 17.5997 22.2834 17.5016 22.2446C17.4034 22.2058 17.3141 22.1476 17.2391 22.0734C17.0922 21.9222 17.0101 21.7198 17.0101 21.509C17.0101 21.2982 17.0922 21.0957 17.2391 20.9445L20.3867 17.7969H11.6875C11.4762 17.7969 11.2735 17.7129 11.124 17.5635C10.9746 17.414 10.8906 17.2113 10.8906 17C10.8906 16.7887 10.9746 16.586 11.124 16.4365C11.2735 16.2871 11.4762 16.2031 11.6875 16.2031H20.3867L17.2391 13.0555C17.0894 12.9058 17.0053 12.7027 17.0053 12.491C17.0053 12.2793 17.0894 12.0763 17.2391 11.9266C17.3888 11.7769 17.5918 11.6928 17.8035 11.6928C18.0152 11.6928 18.2183 11.7769 18.368 11.9266L22.8703 16.4422Z" fill="#B8B8B8"/>
</svg>
