<svg width="35" height="35" viewBox="0 0 35 35" fill="none" xmlns="http://www.w3.org/2000/svg">
<path d="M32.7542 8.75001C31.6313 9.26043 30.4208 9.59584 29.1667 9.75626C30.45 8.98334 31.4417 7.75834 31.9083 6.28543C30.6979 7.01459 29.3563 7.52501 27.9417 7.81668C26.7896 6.56251 25.1709 5.83334 23.3334 5.83334C19.9063 5.83334 17.1063 8.63334 17.1063 12.0896C17.1063 12.5854 17.1646 13.0667 17.2667 13.5188C12.075 13.2563 7.4521 10.7625 4.37502 6.98543C3.83543 7.90418 3.52918 8.98334 3.52918 10.1208C3.52918 12.2938 4.62293 14.2188 6.3146 15.3125C5.27918 15.3125 4.31668 15.0208 3.47085 14.5833V14.6271C3.47085 17.6604 5.62918 20.1979 8.48752 20.7667C7.56983 21.0178 6.60641 21.0528 5.67293 20.8688C6.06903 22.112 6.84476 23.1998 7.89108 23.9793C8.93741 24.7588 10.2017 25.1908 11.5063 25.2146C9.29489 26.9652 6.55376 27.9115 3.73335 27.8979C3.23752 27.8979 2.74168 27.8688 2.24585 27.8104C5.01668 29.5896 8.31252 30.625 11.8417 30.625C23.3334 30.625 29.6479 21.0875 29.6479 12.8188C29.6479 12.5417 29.6479 12.2792 29.6333 12.0021C30.8583 11.1271 31.9083 10.0188 32.7542 8.75001Z" fill="black"/>
</svg>
