<svg width="60" height="60" viewBox="0 0 60 60" fill="none" xmlns="http://www.w3.org/2000/svg">
<rect width="60" height="60" rx="2" fill="#FE754A"/>
<path d="M42 22.3529C41.1534 22.7647 40.2409 23.0353 39.2954 23.1647C40.2629 22.5412 41.0105 21.5529 41.3623 20.3647C40.4498 20.9529 39.4383 21.3647 38.3719 21.6C37.5033 20.5882 36.283 20 34.8977 20C32.3141 20 30.2032 22.2588 30.2032 25.0471C30.2032 25.4471 30.2471 25.8353 30.3241 26.2C26.4101 25.9882 22.925 23.9765 20.6052 20.9294C20.1984 21.6706 19.9675 22.5412 19.9675 23.4588C19.9675 25.2118 20.7921 26.7647 22.0674 27.6471C21.2868 27.6471 20.5612 27.4118 19.9235 27.0588V27.0941C19.9235 29.5412 21.5507 31.5882 23.7055 32.0471C23.0137 32.2497 22.2874 32.2778 21.5837 32.1294C21.8823 33.1323 22.4671 34.0099 23.2559 34.6387C24.0447 35.2676 24.9979 35.6161 25.9814 35.6353C24.3142 37.0476 22.2477 37.811 20.1214 37.8C19.7476 37.8 19.3738 37.7765 19 37.7294C21.0889 39.1647 23.5736 40 26.2342 40C34.8977 40 39.6582 32.3059 39.6582 25.6353C39.6582 25.4118 39.6582 25.2 39.6472 24.9765C40.5707 24.2706 41.3623 23.3765 42 22.3529V22.3529Z" fill="white"/>
</svg>
