<svg width="10" height="9" viewBox="0 0 10 9" fill="none" xmlns="http://www.w3.org/2000/svg">
<path d="M10 1.01647C9.63193 1.19435 9.23518 1.31125 8.82409 1.36715C9.24474 1.09779 9.56979 0.670871 9.72275 0.157553C9.326 0.411671 8.88623 0.589553 8.42256 0.6912C8.04493 0.254118 7.51434 0 6.91205 0C5.78872 0 4.87094 0.975812 4.87094 2.18033C4.87094 2.35313 4.89006 2.52085 4.92352 2.6784C3.2218 2.58692 1.7065 1.71784 0.697897 0.401506C0.521033 0.721694 0.42065 1.09779 0.42065 1.49421C0.42065 2.25148 0.779159 2.92235 1.33365 3.30353C0.994264 3.30353 0.678776 3.20188 0.40153 3.04941V3.06466C0.40153 4.12179 1.10899 5.00612 2.04589 5.20433C1.74509 5.29185 1.4293 5.30403 1.12333 5.23991C1.25316 5.67317 1.50743 6.05227 1.85039 6.32394C2.19335 6.5956 2.60777 6.74616 3.03537 6.75445C2.31053 7.36455 1.41204 7.69434 0.487572 7.6896C0.325048 7.6896 0.162524 7.67944 0 7.65911C0.908222 8.27915 1.98853 8.64 3.14532 8.64C6.91205 8.64 8.98184 5.31614 8.98184 2.43445C8.98184 2.33788 8.98184 2.2464 8.97706 2.14984C9.37859 1.84489 9.72275 1.45864 10 1.01647V1.01647Z" fill="white"/>
</svg>
