<svg width="190" height="60" viewBox="0 0 190 60" fill="none" xmlns="http://www.w3.org/2000/svg">
<g clip-path="url(#clip0_141_81)">
<path d="M174.87 0.000195H15.139C14.5567 0.000195 13.9815 0.000195 13.4008 0.003195C12.9147 0.006195 12.4324 0.01491 11.9417 0.022245C10.8755 0.0340977 9.81184 0.122709 8.75993 0.28731C7.7095 0.455494 6.69197 0.772569 5.74176 1.22781C4.79271 1.6869 3.92554 2.28345 3.1717 2.9958C2.4139 3.70615 1.78222 4.52722 1.30095 5.42743C0.818341 6.32586 0.483702 7.2886 0.308585 8.28242C0.131803 9.27497 0.0366751 10.279 0.0240548 11.2854C0.00932026 11.7453 0.00776424 12.2067 0 12.6667V47.3381C0.00776424 47.8038 0.00932026 48.255 0.0240548 48.7209C0.036679 49.7273 0.131807 50.7313 0.308585 51.7238C0.483218 52.7182 0.817878 53.6815 1.30095 54.5802C1.782 55.4775 2.41377 56.2953 3.1717 57.0017C3.92268 57.7172 4.79041 58.3142 5.74176 58.7697C6.69196 59.2262 7.70938 59.5452 8.75993 59.7159C9.81202 59.8792 10.8756 59.9679 11.9417 59.9811C12.4324 59.9913 12.9147 59.9972 13.4008 59.9972C13.9815 60.0002 14.5568 60.0002 15.139 60.0002H174.87C175.44 60.0002 176.02 60.0002 176.591 59.9972C177.075 59.9972 177.571 59.9913 178.055 59.9811C179.119 59.9686 180.18 59.8799 181.23 59.7159C182.284 59.544 183.305 59.2251 184.26 58.7697C185.21 58.3139 186.077 57.717 186.828 57.0017C187.584 56.2925 188.217 55.4754 188.704 54.5802C189.183 53.6808 189.515 52.7176 189.687 51.7238C189.864 50.7311 189.962 49.7274 189.981 48.7209C189.988 48.255 189.988 47.8038 189.988 47.3381C190 46.7931 190 46.2512 190 45.6974V14.3044C190 13.7551 190 13.2102 189.988 12.6667C189.988 12.2067 189.988 11.7453 189.981 11.2854C189.962 10.2788 189.864 9.27505 189.687 8.28236C189.514 7.28912 189.183 6.32645 188.704 5.42737C187.724 3.62299 186.169 2.15423 184.26 1.22767C183.305 0.773546 182.284 0.456556 181.23 0.287175C180.18 0.121849 179.119 0.0332066 178.055 0.022035C177.571 0.014715 177.075 0.005925 176.591 0.003C176.02 0 175.44 0 174.87 0V0.000195Z" fill="#A6A6A6"/>
<path d="M13.4085 58.6875C12.9247 58.6875 12.4527 58.6816 11.9727 58.6714C10.9784 58.6592 9.98643 58.5774 9.00492 58.4268C8.08971 58.2779 7.20311 58.0009 6.37438 57.605C5.55325 57.2123 4.80431 56.6974 4.15626 56.08C3.49882 55.47 2.95148 54.7624 2.53591 53.9853C2.11577 53.2032 1.82501 52.3648 1.67375 51.4995C1.51041 50.5697 1.42203 49.6295 1.40938 48.687C1.39932 48.3707 1.38614 47.3174 1.38614 47.3174V12.6665C1.38614 12.6665 1.40017 11.6294 1.40946 11.3247C1.42157 10.3837 1.50943 9.44498 1.67229 8.5166C1.82382 7.64888 2.11481 6.80812 2.53518 6.02344C2.94922 5.24692 3.49352 4.53879 4.147 3.92652C4.79974 3.30843 5.55107 2.79091 6.3736 2.39281C7.20043 1.99814 8.08535 1.7231 8.99871 1.57691C9.98345 1.42475 10.9789 1.34249 11.9766 1.33082L13.4093 1.3125H176.583L178.033 1.33155C179.021 1.34265 180.008 1.42417 180.983 1.57543C181.906 1.72346 182.8 2.00042 183.637 2.39721C185.284 3.19948 186.625 4.46874 187.471 6.02711C187.885 6.80637 188.171 7.64026 188.321 8.50048C188.486 9.43649 188.578 10.3826 188.597 11.3313C188.601 11.7561 188.601 12.2124 188.601 12.6665C188.614 13.229 188.614 13.7644 188.614 14.3042V45.6972C188.614 46.2421 188.614 46.7739 188.601 47.31C188.601 47.7978 188.601 48.2446 188.595 48.7045C188.577 49.6363 188.486 50.5655 188.324 51.4848C188.176 52.3564 187.886 53.2013 187.466 53.9898C187.048 54.7584 186.504 55.4599 185.854 56.0683C185.205 56.689 184.455 57.2069 183.632 57.6021C182.798 58.0011 181.905 58.2791 180.983 58.4268C180.002 58.5782 179.01 58.66 178.016 58.6714C177.551 58.6816 177.064 58.6875 176.591 58.6875L174.87 58.6905L13.4085 58.6875Z" fill="black"/>
<path d="M39.3275 30.451C39.3446 29.199 39.6966 27.9714 40.3508 26.8825C41.005 25.7936 41.9401 24.8787 43.0692 24.2229C42.3519 23.2552 41.4057 22.4587 40.3056 21.8969C39.2056 21.3351 37.982 21.0233 36.7321 20.9864C34.0658 20.722 31.481 22.4936 30.1223 22.4936C28.7374 22.4936 26.6455 21.0126 24.3928 21.0564C22.9358 21.1009 21.5158 21.5012 20.2711 22.2182C19.0265 22.9353 17.9997 23.9448 17.2908 25.1482C14.2201 30.1708 16.5106 37.5524 19.4521 41.6123C20.9238 43.6004 22.6438 45.821 24.8944 45.7423C27.0968 45.656 27.9193 44.4156 30.5777 44.4156C33.2115 44.4156 33.9832 45.7423 36.2795 45.6922C38.6427 45.656 40.1316 43.6954 41.5517 41.6885C42.6091 40.272 43.4228 38.7064 43.9626 37.0497C42.5896 36.5011 41.418 35.5829 40.5937 34.4094C39.7695 33.236 39.3291 31.8593 39.3275 30.451V30.451Z" fill="white"/>
<path d="M34.9903 18.3165C36.2788 16.8552 36.9136 14.9769 36.7599 13.0806C34.7913 13.2759 32.9729 14.1647 31.6669 15.57C31.0284 16.2565 30.5394 17.0551 30.2278 17.9203C29.9162 18.7854 29.7882 19.7001 29.851 20.6121C30.8356 20.6216 31.8097 20.42 32.6999 20.0224C33.5902 19.6248 34.3733 19.0415 34.9903 18.3165Z" fill="white"/>
<path d="M67.1666 40.7095H59.651L57.8462 45.7442H54.6629L61.7815 27.1172H65.0889L72.2075 45.7442H68.9699L67.1666 40.7095ZM60.4294 38.3863H66.3868L63.45 30.2154H63.3678L60.4294 38.3863Z" fill="white"/>
<path d="M87.5814 38.9547C87.5814 43.1749 85.1904 45.8863 81.5822 45.8863C80.6682 45.9315 79.7592 45.7326 78.9593 45.3124C78.1594 44.8922 77.5009 44.2676 77.0592 43.5103H76.9909V50.2369H74.0402V32.1636H76.8964V34.4224H76.9507C77.4127 33.6687 78.0823 33.0474 78.8883 32.6247C79.6943 32.2019 80.6065 31.9935 81.5279 32.0215C85.1764 32.0216 87.5814 34.7462 87.5814 38.9547ZM84.5484 38.9547C84.5484 36.2052 83.0444 34.3975 80.7496 34.3975C78.495 34.3975 76.9786 36.2432 76.9786 38.9547C76.9786 41.691 78.495 43.5235 80.7496 43.5235C83.0444 43.5235 84.5484 41.7291 84.5484 38.9547Z" fill="white"/>
<path d="M103.403 38.9547C103.403 43.1749 101.012 45.8863 97.4042 45.8863C96.4902 45.9315 95.5812 45.7326 94.7813 45.3123C93.9813 44.8921 93.3229 44.2676 92.8812 43.5103H92.8129V50.2369H89.8622V32.1636H92.7183V34.4224H92.7726C93.2346 33.6687 93.9042 33.0474 94.7102 32.6247C95.5162 32.2019 96.4284 31.9935 97.3499 32.0215C100.998 32.0215 103.403 34.7461 103.403 38.9547ZM100.37 38.9547C100.37 36.2052 98.8663 34.3975 96.5715 34.3975C94.317 34.3975 92.8005 36.2432 92.8005 38.9547C92.8005 41.691 94.317 43.5235 96.5715 43.5235C98.8664 43.5235 100.37 41.7291 100.37 38.9547H100.37Z" fill="white"/>
<path d="M113.86 40.5543C114.079 42.4015 115.978 43.6143 118.574 43.6143C121.061 43.6143 122.851 42.4014 122.851 40.7359C122.851 39.29 121.771 38.4243 119.216 37.8311L116.661 37.2495C113.04 36.4233 111.359 34.8237 111.359 32.228C111.359 29.0142 114.324 26.8066 118.534 26.8066C122.7 26.8066 125.556 29.0142 125.652 32.228H122.674C122.495 30.3691 120.869 29.2471 118.492 29.2471C116.115 29.2471 114.488 30.3823 114.488 32.0347C114.488 33.3516 115.527 34.1265 118.069 34.7197L120.241 35.2236C124.286 36.1274 125.967 37.6626 125.967 40.3872C125.967 43.872 123.029 46.0546 118.355 46.0546C113.983 46.0546 111.031 43.9233 110.84 40.5541L113.86 40.5543Z" fill="white"/>
<path d="M132.335 28.9497V32.1636H135.069V34.3711H132.335V41.8579C132.335 43.021 132.883 43.563 134.084 43.563C134.409 43.5576 134.733 43.5361 135.055 43.4985V45.6928C134.515 45.7882 133.966 45.8314 133.416 45.8217C130.506 45.8217 129.371 44.789 129.371 42.1552V34.3711H127.28V32.1636H129.371V28.9497H132.335Z" fill="white"/>
<path d="M136.652 38.9546C136.652 34.6816 139.316 31.9966 143.47 31.9966C147.638 31.9966 150.289 34.6816 150.289 38.9546C150.289 43.2393 147.652 45.9126 143.47 45.9126C139.29 45.9126 136.652 43.2392 136.652 38.9546ZM147.283 38.9546C147.283 36.0234 145.861 34.2935 143.47 34.2935C141.079 34.2935 139.659 36.0366 139.659 38.9546C139.659 41.8975 141.079 43.6143 143.47 43.6143C145.861 43.6143 147.283 41.8975 147.283 38.9546H147.283Z" fill="white"/>
<path d="M152.722 32.1635H155.536V34.475H155.605C155.795 33.7531 156.243 33.1151 156.872 32.6683C157.502 32.2214 158.275 31.993 159.062 32.0214C159.402 32.0203 159.742 32.0552 160.073 32.1254V34.7328C159.644 34.6089 159.196 34.552 158.748 34.5644C158.319 34.548 157.892 34.6194 157.495 34.7737C157.098 34.928 156.742 35.1616 156.449 35.4585C156.157 35.7553 155.937 36.1083 155.803 36.4933C155.669 36.8783 155.624 37.2862 155.673 37.6889V45.7441H152.722L152.722 32.1635Z" fill="white"/>
<path d="M173.678 41.7554C173.281 44.2207 170.74 45.9126 167.488 45.9126C163.306 45.9126 160.711 43.2656 160.711 39.019C160.711 34.7593 163.32 31.9966 167.364 31.9966C171.341 31.9966 173.842 34.5776 173.842 38.6953V39.6504H163.689V39.8188C163.642 40.3186 163.709 40.8221 163.884 41.2959C164.059 41.7697 164.338 42.2028 164.704 42.5667C165.07 42.9305 165.513 43.2166 166.005 43.4061C166.497 43.5955 167.026 43.684 167.556 43.6655C168.254 43.7272 168.953 43.5747 169.552 43.2305C170.15 42.8864 170.614 42.369 170.876 41.7554L173.678 41.7554ZM163.703 37.7021H170.89C170.917 37.2528 170.844 36.803 170.678 36.3812C170.512 35.9594 170.255 35.5746 169.924 35.251C169.593 34.9273 169.195 34.6718 168.754 34.5005C168.314 34.3291 167.84 34.2457 167.364 34.2554C166.884 34.2527 166.407 34.3399 165.963 34.512C165.518 34.6841 165.114 34.9377 164.773 35.2582C164.433 35.5786 164.163 35.9596 163.98 36.379C163.796 36.7985 163.702 37.2482 163.703 37.7022V37.7021Z" fill="white"/>
<path d="M56.6375 22.0463V13.0962H60.4457C62.2257 13.0962 63.2956 13.9517 63.2956 15.3286C63.296 15.7809 63.131 16.2195 62.8283 16.57C62.5257 16.9205 62.1041 17.1614 61.635 17.252V17.3574C62.217 17.3834 62.7655 17.6227 63.1638 18.0245C63.5622 18.4263 63.7791 18.9589 63.7686 19.5093C63.7686 21.0847 62.5545 22.0464 60.531 22.0464L56.6375 22.0463ZM58.109 16.8857H59.8549C61.1559 16.8857 61.8319 16.433 61.8319 15.5834C61.8319 14.758 61.1946 14.2746 60.1046 14.2746H58.109V16.8857ZM60.2364 20.8679C61.5622 20.8679 62.2645 20.3588 62.2645 19.4103C62.2645 18.4736 61.5357 17.9836 60.1511 17.9836H58.109V20.8679H60.2364Z" fill="white"/>
<path d="M65.2804 20.1362C65.2804 18.9204 66.2386 18.2195 67.9396 18.1199L69.8762 18.0144V17.4314C69.8762 16.718 69.377 16.3152 68.4125 16.3152C67.6248 16.3152 67.079 16.5884 66.9224 17.0659H65.5564C65.7006 15.9058 66.8557 15.1616 68.4776 15.1616C70.2701 15.1616 71.2811 16.0046 71.2811 17.4314V22.0464H69.9228V21.0972H69.8111C69.5845 21.4377 69.2663 21.7152 68.889 21.9015C68.5117 22.0879 68.0889 22.1762 67.6636 22.1577C67.3634 22.1872 67.0601 22.1569 66.7731 22.0689C66.4861 21.9808 66.2218 21.8369 65.9972 21.6465C65.7727 21.456 65.5929 21.2232 65.4694 20.9631C65.346 20.703 65.2815 20.4213 65.2804 20.1362V20.1362ZM69.8762 19.5591V18.9944L68.1303 19.0998C67.1457 19.1621 66.6991 19.4785 66.6991 20.074C66.6991 20.6819 67.2573 21.0356 68.0249 21.0356C68.2498 21.0571 68.477 21.0357 68.6929 20.9725C68.9089 20.9094 69.1092 20.8059 69.2819 20.6681C69.4546 20.5304 69.5963 20.3612 69.6984 20.1706C69.8005 19.9801 69.861 19.7721 69.8762 19.5591V19.5591Z" fill="white"/>
<path d="M73.3061 13.2948C73.2952 13.1221 73.3395 12.9504 73.4331 12.8018C73.5268 12.6531 73.6655 12.5345 73.8313 12.4612C73.9971 12.3879 74.1825 12.3634 74.3632 12.3908C74.544 12.4181 74.7119 12.4961 74.8452 12.6147C74.9785 12.7332 75.0711 12.8869 75.1109 13.0557C75.1507 13.2245 75.1359 13.4007 75.0685 13.5615C75.0011 13.7223 74.8841 13.8603 74.7327 13.9575C74.5813 14.0548 74.4025 14.1069 74.2194 14.107C74.1024 14.1127 73.9854 14.0959 73.8754 14.0577C73.7654 14.0195 73.6648 13.9608 73.5794 13.8849C73.4941 13.809 73.4259 13.7176 73.379 13.6162C73.332 13.5148 73.3072 13.4055 73.3061 13.2948V13.2948ZM73.5155 15.2921H74.9218V22.0465H73.5154L73.5155 15.2921Z" fill="white"/>
<path d="M79.7642 19.6521L78.2013 22.0464H76.6522L79.0231 18.6846L76.6321 15.292H78.2803L79.8169 17.6738H79.9286L81.4513 15.292H83.0204L80.6636 18.6289L83.0468 22.0464H81.4264L79.8696 19.6521H79.7642Z" fill="white"/>
<path d="M84.2918 20.1362C84.2918 18.9204 85.2501 18.2195 86.9511 18.1199L88.8877 18.0144V17.4314C88.8877 16.718 88.3884 16.3152 87.424 16.3152C86.6363 16.3152 86.0905 16.5884 85.9339 17.0659H84.5678C84.712 15.9058 85.8672 15.1616 87.4891 15.1616C89.2816 15.1616 90.2925 16.0046 90.2925 17.4314V22.0464H88.9342V21.0972H88.8226C88.596 21.4377 88.2778 21.7152 87.9005 21.9015C87.5232 22.0879 87.1003 22.1762 86.6751 22.1577C86.3749 22.1872 86.0716 22.1569 85.7846 22.0689C85.4975 21.9808 85.2333 21.8369 85.0087 21.6465C84.7842 21.456 84.6044 21.2232 84.4809 20.9631C84.3574 20.703 84.293 20.4213 84.2918 20.1362V20.1362ZM88.8877 19.5591V18.9944L87.1418 19.0998C86.1572 19.1621 85.7106 19.4785 85.7106 20.074C85.7106 20.6819 86.2688 21.0356 87.0364 21.0356C87.2613 21.0571 87.4885 21.0357 87.7044 20.9725C87.9204 20.9094 88.1207 20.8059 88.2934 20.6681C88.4661 20.5304 88.6077 20.3612 88.7098 20.1706C88.8119 19.9801 88.8724 19.7721 88.8877 19.5591V19.5591Z" fill="white"/>
<path d="M92.5021 15.292H93.8604V16.3276H93.9658C94.1179 15.9681 94.3866 15.6634 94.7335 15.4572C95.0803 15.251 95.4874 15.1539 95.8963 15.1799C96.1076 15.1772 96.3187 15.1959 96.5258 15.2356V16.5511C96.2669 16.4988 96.0029 16.4718 95.7381 16.4705C95.5054 16.4508 95.2709 16.4772 95.0496 16.5482C94.8284 16.6192 94.6253 16.7331 94.4534 16.8827C94.2815 17.0322 94.1447 17.2141 94.0516 17.4166C93.9586 17.619 93.9114 17.8377 93.9131 18.0584V22.0464H92.5021L92.5021 15.292Z" fill="white"/>
<path d="M101.964 15.2923H103.323V16.3653H103.428C103.607 15.9799 103.909 15.6569 104.291 15.4411C104.674 15.2254 105.118 15.1278 105.562 15.1619C105.91 15.1372 106.259 15.1868 106.584 15.3069C106.909 15.4271 107.201 15.6147 107.438 15.856C107.676 16.0972 107.853 16.3859 107.957 16.7007C108.06 17.0154 108.088 17.3481 108.036 17.6741V22.0466H106.625V18.0089C106.625 16.9234 106.126 16.3836 105.083 16.3836C104.846 16.3732 104.611 16.4112 104.391 16.4949C104.172 16.5787 103.975 16.7062 103.813 16.8688C103.651 17.0314 103.527 17.2252 103.452 17.4368C103.377 17.6485 103.35 17.8732 103.375 18.0953V22.0467H101.964L101.964 15.2923Z" fill="white"/>
<path d="M109.812 20.1362C109.812 18.9204 110.77 18.2195 112.471 18.1199L114.408 18.0144V17.4314C114.408 16.718 113.908 16.3152 112.944 16.3152C112.156 16.3152 111.61 16.5884 111.454 17.0659H110.088C110.232 15.9058 111.387 15.1616 113.009 15.1616C114.802 15.1616 115.812 16.0046 115.812 17.4314V22.0464H114.454V21.0972H114.343C114.116 21.4377 113.798 21.7152 113.42 21.9015C113.043 22.0879 112.62 22.1762 112.195 22.1577C111.895 22.1872 111.592 22.1569 111.305 22.0689C111.018 21.9808 110.753 21.8369 110.529 21.6465C110.304 21.456 110.124 21.2232 110.001 20.9631C109.877 20.703 109.813 20.4213 109.812 20.1362V20.1362ZM114.408 19.5591V18.9944L112.662 19.0998C111.677 19.1621 111.231 19.4785 111.231 20.074C111.231 20.6819 111.789 21.0356 112.556 21.0356C112.781 21.0571 113.008 21.0357 113.224 20.9725C113.44 20.9094 113.641 20.8059 113.813 20.6681C113.986 20.5304 114.128 20.3612 114.23 20.1707C114.332 19.9801 114.392 19.7721 114.408 19.5591H114.408Z" fill="white"/>
<rect x="1" y="1" width="188" height="58" rx="10" stroke="black" stroke-width="2"/>
</g>
<defs>
<clipPath id="clip0_141_81">
<rect width="190" height="60" fill="white"/>
</clipPath>
</defs>
</svg>
