<svg width="225" height="44" viewBox="0 0 225 44" fill="none" xmlns="http://www.w3.org/2000/svg">
<path d="M7.514 7.852C7.514 9.16933 7.072 11.752 6.188 15.6C7.228 14.8547 8.164 14.482 8.996 14.482C9.84533 14.482 10.5647 14.8373 11.154 15.548C11.7607 16.2413 12.064 17.3073 12.064 18.746C12.064 21.1553 11.5873 23.0187 10.634 24.336C9.698 25.6533 8.554 26.312 7.202 26.312C6.69933 26.312 6.188 26.2513 5.668 26.13C5.16533 26.0087 4.784 25.8787 4.524 25.74L4.134 25.558C3.02467 25.9393 1.94133 26.13 0.884 26.13C0.78 26.0433 0.728 25.6273 0.728 24.882C0.728 24.1193 1.21333 21.6233 2.184 17.394C3.15467 13.1473 3.64 10.244 3.64 8.684C3.64 8.40667 3.59667 8.05133 3.51 7.618C4.862 7.15 6.15333 6.916 7.384 6.916C7.47067 7.15867 7.514 7.47067 7.514 7.852ZM7.28 16.692C6.95067 16.692 6.45667 16.848 5.798 17.16C5.00067 20.5227 4.56733 22.932 4.498 24.388C5.018 24.6133 5.512 24.726 5.98 24.726C6.63867 24.726 7.18467 24.1193 7.618 22.906C8.06867 21.6927 8.294 20.358 8.294 18.902C8.294 17.4287 7.956 16.692 7.28 16.692ZM13.4802 24.05C13.4802 23.3047 13.7055 22.0393 14.1562 20.254C14.6069 18.4513 14.8322 17.3507 14.8322 16.952C14.8322 16.536 14.5202 15.99 13.8962 15.314L13.9222 14.976C15.1009 14.7333 16.6522 14.612 18.5762 14.612C18.6629 14.8373 18.7062 15.2447 18.7062 15.834C18.7062 16.4233 18.4635 17.68 17.9782 19.604C17.4929 21.528 17.2502 22.724 17.2502 23.192C17.2502 23.66 17.4235 23.894 17.7702 23.894C18.2729 23.894 18.8535 23.712 19.5122 23.348C19.5815 22.932 19.7549 22.1347 20.0322 20.956C20.6562 18.1827 20.9682 16.198 20.9682 15.002C21.5749 14.7593 22.6669 14.638 24.2442 14.638H24.7382C24.7382 15.4527 24.4955 17.0473 24.0102 19.422C23.5249 21.7793 23.2822 23.166 23.2822 23.582C23.2822 23.9807 23.3689 24.18 23.5422 24.18C23.6462 24.18 24.1402 23.972 25.0242 23.556L25.5182 24.388C23.9755 25.6707 22.6235 26.312 21.4622 26.312C20.9075 26.312 20.4309 26.156 20.0322 25.844C19.6509 25.532 19.4342 25.1247 19.3822 24.622C17.9782 25.766 16.7042 26.338 15.5602 26.338C14.9535 26.338 14.4509 26.1387 14.0522 25.74C13.6709 25.3413 13.4802 24.778 13.4802 24.05ZM33.8388 14.794C33.8041 15.1753 33.6481 15.678 33.3708 16.302C32.7121 16.2327 32.0621 16.198 31.4208 16.198H31.3168C30.9528 20.4793 30.6148 23.6427 30.3028 25.688C29.9908 27.7333 29.5835 29.1633 29.0808 29.978C28.4568 29.9607 27.8068 29.874 27.1308 29.718C26.4721 29.5793 26.0215 29.432 25.7788 29.276C26.1948 27.9933 26.6108 26.0607 27.0268 23.478C27.4601 20.8953 27.7375 18.512 27.8588 16.328C27.3735 16.3627 26.8361 16.4233 26.2468 16.51C26.1948 16.2847 26.1688 16.0593 26.1688 15.834C26.1688 15.5913 26.2035 15.2447 26.2728 14.794H27.9368C27.9715 13.286 28.0495 12.142 28.1708 11.362C28.3788 9.97533 28.8555 8.892 29.6008 8.112C30.3635 7.31467 31.3428 6.916 32.5388 6.916C33.3015 6.916 33.8995 7.08933 34.3328 7.436C34.7835 7.76533 35.0088 8.294 35.0088 9.022C35.0088 9.75 34.6795 10.6947 34.0208 11.856C33.3621 13 32.4955 13.9793 31.4208 14.794H33.8388ZM31.4728 13.156C32.1488 12.584 32.6775 11.9513 33.0588 11.258C33.4401 10.5647 33.6308 9.94067 33.6308 9.386C33.6308 8.814 33.4488 8.528 33.0848 8.528C32.3221 8.528 31.8368 9.40333 31.6288 11.154C31.5595 11.7433 31.5075 12.4107 31.4728 13.156ZM41.456 14.794C41.4213 15.1753 41.2653 15.678 40.988 16.302C40.3293 16.2327 39.6793 16.198 39.038 16.198H38.934C38.57 20.4793 38.232 23.6427 37.92 25.688C37.608 27.7333 37.2007 29.1633 36.698 29.978C36.074 29.9607 35.424 29.874 34.748 29.718C34.0893 29.5793 33.6387 29.432 33.396 29.276C33.812 27.9933 34.228 26.0607 34.644 23.478C35.0773 20.8953 35.3547 18.512 35.476 16.328C34.9907 16.3627 34.4533 16.4233 33.864 16.51C33.812 16.2847 33.786 16.0593 33.786 15.834C33.786 15.5913 33.8207 15.2447 33.89 14.794H35.554C35.5887 13.286 35.6667 12.142 35.788 11.362C35.996 9.97533 36.4727 8.892 37.218 8.112C37.9807 7.31467 38.96 6.916 40.156 6.916C40.9187 6.916 41.5167 7.08933 41.95 7.436C42.4007 7.76533 42.626 8.294 42.626 9.022C42.626 9.75 42.2967 10.6947 41.638 11.856C40.9793 13 40.1127 13.9793 39.038 14.794H41.456ZM39.09 13.156C39.766 12.584 40.2947 11.9513 40.676 11.258C41.0573 10.5647 41.248 9.94067 41.248 9.386C41.248 8.814 41.066 8.528 40.702 8.528C39.9393 8.528 39.454 9.40333 39.246 11.154C39.1767 11.7433 39.1247 12.4107 39.09 13.156ZM41.3772 21.502C41.3772 19.3353 42.0272 17.628 43.3272 16.38C44.6445 15.1147 46.1352 14.482 47.7992 14.482C48.8218 14.482 49.6625 14.7333 50.3212 15.236C50.9798 15.7387 51.3092 16.4147 51.3092 17.264C51.3092 18.096 51.0925 18.798 50.6592 19.37C50.2432 19.942 49.7318 20.384 49.1252 20.696C47.8945 21.3027 46.7678 21.684 45.7452 21.84L45.1212 21.918C45.2425 23.5473 45.9098 24.362 47.1232 24.362C47.5392 24.362 47.9812 24.258 48.4492 24.05C48.9172 23.842 49.2812 23.634 49.5412 23.426L49.9312 23.114L50.5552 23.946C50.4165 24.1367 50.1392 24.388 49.7232 24.7C49.3072 25.012 48.9172 25.272 48.5532 25.48C47.5478 26.0347 46.4472 26.312 45.2512 26.312C44.0552 26.312 43.1105 25.8873 42.4172 25.038C41.7238 24.1887 41.3772 23.01 41.3772 21.502ZM45.0952 20.644C45.9792 20.488 46.6812 20.1153 47.2012 19.526C47.7212 18.9367 47.9812 18.174 47.9812 17.238C47.9812 16.302 47.7038 15.834 47.1492 15.834C46.4905 15.834 45.9792 16.3973 45.6152 17.524C45.2685 18.6333 45.0952 19.6733 45.0952 20.644ZM60.0039 14.794C59.9693 15.2273 59.8219 15.73 59.5619 16.302C58.9033 16.2327 58.2793 16.198 57.6899 16.198H57.2219C56.4246 20.0633 56.0259 22.4727 56.0259 23.426C56.0259 23.9287 56.1299 24.18 56.3379 24.18C56.5633 24.18 57.1439 23.9633 58.0799 23.53L58.5479 24.388C57.0053 25.6707 55.5753 26.312 54.2579 26.312C53.6513 26.312 53.1486 26.1213 52.7499 25.74C52.3686 25.3587 52.1779 24.856 52.1779 24.232C52.1779 23.5907 52.2473 22.8713 52.3859 22.074C52.5419 21.2767 52.7499 20.306 53.0099 19.162C53.2699 18.0007 53.4606 17.0647 53.5819 16.354C52.9406 16.406 52.4639 16.458 52.1519 16.51C52.1173 16.302 52.0999 16.0247 52.0999 15.678C52.0999 15.314 52.1259 15.0193 52.1779 14.794H53.8159C53.9546 13.858 54.0239 12.974 54.0239 12.142L53.9979 11.336V11.258C55.3499 10.79 56.6239 10.556 57.8199 10.556C57.8893 10.9027 57.9239 11.336 57.9239 11.856C57.9239 12.376 57.7766 13.3553 57.4819 14.794H60.0039ZM65.519 25.662C65.3977 26.0433 65.1203 26.234 64.687 26.234C64.271 26.234 63.7943 26 63.257 25.532C63.777 24.0067 64.8777 21.554 66.559 18.174C68.2403 14.7767 69.3323 12.2373 69.835 10.556C69.9043 10.2787 69.939 10.088 69.939 9.984C69.939 9.724 69.7483 9.32533 69.367 8.788L69.159 8.502L69.211 8.164C70.6843 7.748 72.3137 7.54 74.099 7.54L75.685 7.644C75.8757 7.904 76.023 8.30267 76.127 8.84C76.4043 10.1573 76.543 13.546 76.543 19.006C76.543 21.1207 76.725 22.6113 77.089 23.478C77.2277 23.8073 77.3663 23.972 77.505 23.972C77.6437 23.972 78.0683 23.7987 78.779 23.452L79.117 23.296L79.637 24.232C78.9783 24.8733 78.2417 25.3847 77.427 25.766C76.6297 26.13 75.893 26.312 75.217 26.312C73.4663 26.312 72.591 24.9513 72.591 22.23V20.176C72.1403 20.072 71.4557 20.02 70.537 20.02C69.6183 20.02 68.613 20.1067 67.521 20.28C66.6543 22.2907 65.987 24.0847 65.519 25.662ZM72.643 18.408L72.669 15.392C72.669 12.7573 72.5563 10.972 72.331 10.036C72.1923 10.036 72.0883 10.0533 72.019 10.088C71.5337 11.4227 71.0743 12.558 70.641 13.494C70.225 14.4127 69.7657 15.4007 69.263 16.458C68.7777 17.498 68.4743 18.148 68.353 18.408H72.643ZM80.2395 26.078H80.0575C80.0228 25.9393 80.0055 25.6273 80.0055 25.142C80.0055 24.6393 80.2395 23.3047 80.7075 21.138C81.1755 18.9713 81.4095 17.732 81.4095 17.42C81.4095 16.8827 81.1668 16.2933 80.6815 15.652L80.4475 15.34L80.4735 15.002C81.4095 14.742 82.9088 14.612 84.9715 14.612C85.1795 15.0627 85.2835 15.6953 85.2835 16.51C85.4741 16.198 85.8728 15.782 86.4795 15.262C87.0861 14.742 87.7101 14.482 88.3515 14.482C89.2875 14.482 89.7555 15.2967 89.7555 16.926C89.6688 17.03 89.5475 17.1687 89.3915 17.342C89.2528 17.498 88.9581 17.7233 88.5075 18.018C88.0741 18.3127 87.6495 18.4947 87.2335 18.564C87.2161 18.564 87.0688 18.33 86.7915 17.862C86.5141 17.394 86.3061 17.16 86.1675 17.16C85.7341 17.316 85.3528 17.576 85.0235 17.94C84.2261 21.528 83.8275 23.8507 83.8275 24.908C83.8275 25.2893 83.8361 25.558 83.8535 25.714C83.2468 25.9567 82.0421 26.078 80.2395 26.078ZM92.4662 28.808C91.8942 29.1547 91.6082 29.4927 91.6082 29.822C91.6082 30.1513 91.7902 30.316 92.1542 30.316C92.5355 30.316 92.9602 30.134 93.4282 29.77C93.8962 29.4233 94.2862 28.8513 94.5982 28.054C93.7662 28.21 93.0555 28.4613 92.4662 28.808ZM100.188 14.664C100.257 14.7333 100.292 14.8893 100.292 15.132C100.292 15.3573 100.275 15.6087 100.24 15.886C100.205 16.146 100.145 16.744 100.058 17.68C99.9715 18.616 99.8848 19.4307 99.7982 20.124C98.9142 27.924 96.5395 31.824 92.6742 31.824C92.0502 31.824 91.4782 31.6593 90.9582 31.33C90.4555 31.0007 90.2042 30.576 90.2042 30.056C90.2042 29.3627 90.6288 28.73 91.4782 28.158C92.3275 27.586 93.4715 27.144 94.9102 26.832C94.9102 26.8147 94.9622 26.572 95.0662 26.104C95.1702 25.636 95.2395 25.2547 95.2742 24.96C94.2342 25.7227 93.2548 26.104 92.3362 26.104C91.4348 26.104 90.6895 25.7487 90.1002 25.038C89.5282 24.3273 89.2422 23.192 89.2422 21.632C89.2422 19.5867 89.7015 17.888 90.6202 16.536C91.5388 15.1667 92.7522 14.482 94.2602 14.482C95.1095 14.482 95.9502 14.69 96.7822 15.106C97.6662 14.794 98.6195 14.638 99.6422 14.638L100.188 14.664ZM95.4302 16.016C94.6848 16.016 94.0955 16.6227 93.6622 17.836C93.2288 19.032 93.0122 20.3667 93.0122 21.84C93.0122 23.296 93.3415 24.024 94.0002 24.024C94.4335 24.024 94.9448 23.8593 95.5342 23.53C96.0195 20.618 96.3662 18.2173 96.5742 16.328C96.0888 16.12 95.7075 16.016 95.4302 16.016ZM104.865 26.312C103.669 26.312 102.733 25.896 102.057 25.064C101.381 24.2147 101.043 23.036 101.043 21.528C101.043 19.604 101.555 17.9487 102.577 16.562C103.617 15.1753 105.047 14.482 106.867 14.482L107.803 14.534C108.098 14.378 108.427 14.3 108.791 14.3C110.161 14.3 110.845 15.5913 110.845 18.174C111.556 18.1393 112.275 18.044 113.003 17.888L113.419 17.784L113.575 18.798C113.003 19.0407 112.232 19.2573 111.261 19.448L110.741 19.552C110.412 21.372 109.745 22.958 108.739 24.31C107.734 25.6447 106.443 26.312 104.865 26.312ZM106.269 24.076C106.997 24.076 107.647 23.608 108.219 22.672C108.809 21.736 109.216 20.748 109.441 19.708C107.587 19.708 106.659 19.0147 106.659 17.628C106.659 17.0733 106.772 16.5533 106.997 16.068L107.127 15.808C107.058 15.7733 106.971 15.756 106.867 15.756C106.763 15.756 106.685 15.7733 106.633 15.808C106.2 16.0853 105.793 16.7353 105.411 17.758C105.03 18.7807 104.839 19.9507 104.839 21.268C104.839 23.14 105.316 24.076 106.269 24.076ZM113.866 26.312C113.277 26.312 112.783 26.1127 112.384 25.714C112.003 25.3153 111.812 24.7607 111.812 24.05C111.812 23.322 112.237 21.0253 113.086 17.16C113.953 13.2773 114.386 10.478 114.386 8.762L114.23 7.618C115.582 7.15 116.847 6.916 118.026 6.916C118.199 7.15867 118.286 7.58333 118.286 8.19C118.286 9.57667 117.844 12.2633 116.96 16.25C116.093 20.2193 115.66 22.5333 115.66 23.192C115.66 23.8333 115.738 24.154 115.894 24.154L117.714 23.504L118.182 24.414C117.593 24.882 116.873 25.3153 116.024 25.714C115.192 26.1127 114.473 26.312 113.866 26.312ZM122.41 26.312C121.214 26.312 120.278 25.896 119.602 25.064C118.926 24.2147 118.588 23.036 118.588 21.528C118.588 19.604 119.1 17.9487 120.122 16.562C121.162 15.1753 122.592 14.482 124.412 14.482L125.348 14.534C125.643 14.378 125.972 14.3 126.336 14.3C127.706 14.3 128.39 15.5913 128.39 18.174C129.101 18.1393 129.82 18.044 130.548 17.888L130.964 17.784L131.12 18.798C130.548 19.0407 129.777 19.2573 128.806 19.448L128.286 19.552C127.957 21.372 127.29 22.958 126.284 24.31C125.279 25.6447 123.988 26.312 122.41 26.312ZM123.814 24.076C124.542 24.076 125.192 23.608 125.764 22.672C126.354 21.736 126.761 20.748 126.986 19.708C125.132 19.708 124.204 19.0147 124.204 17.628C124.204 17.0733 124.317 16.5533 124.542 16.068L124.672 15.808C124.603 15.7733 124.516 15.756 124.412 15.756C124.308 15.756 124.23 15.7733 124.178 15.808C123.745 16.0853 123.338 16.7353 122.956 17.758C122.575 18.7807 122.384 19.9507 122.384 21.268C122.384 23.14 122.861 24.076 123.814 24.076Z" fill="#FE5722"/>
</svg>
