<svg width="80" height="54" viewBox="0 0 80 54" fill="none" xmlns="http://www.w3.org/2000/svg">
<path d="M43.3333 31.5H50C50.884 31.5 51.7319 31.7371 52.357 32.159C52.9821 32.581 53.3333 33.1533 53.3333 33.75C53.3333 34.3467 52.9821 34.919 52.357 35.341C51.7319 35.7629 50.884 36 50 36H40C39.1159 36 38.2681 35.7629 37.643 35.341C37.0178 34.919 36.6667 34.3467 36.6667 33.75V24.75C36.6667 24.1533 37.0178 23.581 37.643 23.159C38.2681 22.7371 39.1159 22.5 40 22.5C40.884 22.5 41.7319 22.7371 42.357 23.159C42.9821 23.581 43.3333 24.1533 43.3333 24.75V31.5ZM36.6667 15.147V13.5C36.6667 12.9033 37.0178 12.331 37.643 11.909C38.2681 11.4871 39.1159 11.25 40 11.25C40.884 11.25 41.7319 11.4871 42.357 11.909C42.9821 12.331 43.3333 12.9033 43.3333 13.5V15.147C44.6043 14.6517 45.5976 13.8872 46.1592 12.972C46.7208 12.0568 46.8193 11.0421 46.4395 10.0852C46.0597 9.12835 45.2227 8.28284 44.0584 7.6798C42.8941 7.07675 41.4676 6.74989 40 6.74989C38.5324 6.74989 37.1059 7.07675 35.9416 7.6798C34.7773 8.28284 33.9403 9.12835 33.5605 10.0852C33.1807 11.0421 33.2792 12.0568 33.8408 12.972C34.4024 13.8872 35.3957 14.6517 36.6667 15.147ZM29.8633 17.0955C28.2079 15.7878 27.1423 14.1873 26.7927 12.4835C26.4431 10.7797 26.8242 9.04401 27.8907 7.48187C28.9573 5.91972 30.6647 4.5966 32.8108 3.66916C34.9569 2.74173 37.4518 2.24883 40 2.24883C42.5482 2.24883 45.0431 2.74173 47.1892 3.66916C49.3353 4.5966 51.0427 5.91972 52.1092 7.48187C53.1758 9.04401 53.5568 10.7797 53.2072 12.4835C52.8577 14.1873 51.7921 15.7878 50.1367 17.0955C55.8473 18.6816 60.5657 21.5561 63.4869 25.2285C66.408 28.9009 67.351 33.1437 66.1548 37.233C64.9587 41.3223 61.6975 45.0048 56.9278 47.6522C52.158 50.2996 46.1752 51.7479 40 51.75C33.8205 51.7532 27.8312 50.3077 23.0557 47.6605C18.2802 45.0133 15.0149 41.3288 13.8179 37.2366C12.6209 33.1445 13.5666 28.8988 16.4932 25.2251C19.4198 21.5514 24.1458 18.6779 29.8633 17.0955ZM40 47.25C42.6264 47.25 45.2271 46.9008 47.6537 46.2224C50.0802 45.5439 52.285 44.5495 54.1421 43.2959C55.9993 42.0424 57.4725 40.5541 58.4776 38.9162C59.4827 37.2783 60 35.5228 60 33.75C60 31.9772 59.4827 30.2217 58.4776 28.5838C57.4725 26.9459 55.9993 25.4577 54.1421 24.2041C52.285 22.9505 50.0802 21.9561 47.6537 21.2776C45.2271 20.5992 42.6264 20.25 40 20.25C34.6957 20.25 29.6086 21.6723 25.8579 24.2041C22.1071 26.7358 20 30.1696 20 33.75C20 37.3304 22.1071 40.7642 25.8579 43.2959C29.6086 45.8277 34.6957 47.25 40 47.25Z" fill="#FF5C00"/>
</svg>
