<svg width="72" height="59" viewBox="0 0 72 59" fill="none" xmlns="http://www.w3.org/2000/svg">
<g clip-path="url(#clip0_6_76)">
<path fill-rule="evenodd" clip-rule="evenodd" d="M52.2 0H19.8C17.8904 0 16.0591 0.621605 14.7088 1.72807C13.3586 2.83453 12.6 4.33522 12.6 5.9V53.1C12.6 54.6648 13.3586 56.1655 14.7088 57.2719C16.0591 58.3784 17.8904 59 19.8 59H52.2C54.1096 59 55.9409 58.3784 57.2912 57.2719C58.6414 56.1655 59.4 54.6648 59.4 53.1V5.9C59.4 4.33522 58.6414 2.83453 57.2912 1.72807C55.9409 0.621605 54.1096 0 52.2 0V0ZM19.8 53.1V5.9H52.2V53.1H19.8Z" fill="white"/>
<path d="M36 50.8875C34.8065 50.8875 33.6619 50.499 32.818 49.8075C31.9741 49.1159 31.5 48.178 31.5 47.2C31.5 46.222 31.9741 45.2841 32.818 44.5925C33.6619 43.901 34.8065 43.5125 36 43.5125C37.1935 43.5125 38.3381 43.901 39.182 44.5925C40.0259 45.2841 40.5 46.222 40.5 47.2C40.5 48.178 40.0259 49.1159 39.182 49.8075C38.3381 50.499 37.1935 50.8875 36 50.8875Z" fill="white"/>
</g>
<defs>
<clipPath id="clip0_6_76">
<rect width="72" height="59" fill="white"/>
</clipPath>
</defs>
</svg>
