<svg width="58" height="47" viewBox="0 0 58 47" fill="none" xmlns="http://www.w3.org/2000/svg">
<path d="M2.69763 5.76465C2.69763 4.10779 4.04078 2.76465 5.69763 2.76465H53.6511C55.308 2.76465 56.6511 4.10779 56.6511 5.76465V41.2352C56.6511 42.8921 55.308 44.2352 53.6511 44.2352H5.69763C4.04078 44.2352 2.69763 42.8921 2.69763 41.2352V5.76465Z" fill="#B8B8B8"/>
<rect x="5.39536" y="5.5293" width="48.5581" height="35.9412" rx="3" fill="white"/>
<path d="M40.25 26.3713H18.75C18.2748 26.3713 17.8191 26.1738 17.4831 25.8222C17.1471 25.4705 16.9583 24.9936 16.9583 24.4963C16.9583 23.9991 17.1471 23.5221 17.4831 23.1705C17.8191 22.8189 18.2748 22.6213 18.75 22.6213H40.25C40.7252 22.6213 41.1809 22.8189 41.5169 23.1705C41.8529 23.5221 42.0417 23.9991 42.0417 24.4963C42.0417 24.9936 41.8529 25.4705 41.5169 25.8222C41.1809 26.1738 40.7252 26.3713 40.25 26.3713Z" fill="#FE5722"/>
</svg>
