<svg width="58" height="47" viewBox="0 0 58 47" fill="none" xmlns="http://www.w3.org/2000/svg">
<path d="M2.69766 5.76465C2.69766 4.10779 4.04081 2.76465 5.69766 2.76465H53.6512C55.308 2.76465 56.6512 4.10779 56.6512 5.76465V41.2352C56.6512 42.8921 55.308 44.2352 53.6512 44.2352H5.69766C4.04081 44.2352 2.69766 42.8921 2.69766 41.2352V5.76465Z" fill="#B8B8B8"/>
<rect x="5.39536" y="5.5293" width="48.5581" height="35.9412" rx="3" fill="white"/>
<path d="M41.0072 21.4577H32.4482V14.5219C32.4482 13.97 32.1777 13.4408 31.6961 13.0506C31.2146 12.6604 30.5615 12.4412 29.8805 12.4412C29.1995 12.4412 28.5464 12.6604 28.0648 13.0506C27.5833 13.4408 27.3128 13.97 27.3128 14.5219V21.4577H18.7537C18.0727 21.4577 17.4196 21.6769 16.9381 22.0671C16.4566 22.4573 16.186 22.9865 16.186 23.5384C16.186 24.0902 16.4566 24.6195 16.9381 25.0097C17.4196 25.3999 18.0727 25.6191 18.7537 25.6191H27.3128V32.5549C27.3128 33.1067 27.5833 33.636 28.0648 34.0262C28.5464 34.4164 29.1995 34.6356 29.8805 34.6356C30.5615 34.6356 31.2146 34.4164 31.6961 34.0262C32.1777 33.636 32.4482 33.1067 32.4482 32.5549V25.6191H41.0072C41.6882 25.6191 42.3413 25.3999 42.8229 25.0097C43.3044 24.6195 43.5749 24.0902 43.5749 23.5384C43.5749 22.9865 43.3044 22.4573 42.8229 22.0671C42.3413 21.6769 41.6882 21.4577 41.0072 21.4577V21.4577Z" fill="#FE5722"/>
</svg>
